<?xml version="1.0" encoding="UTF-8"?>
<svg version="1.1" xmlns="http://www.w3.org/2000/svg" width="128" height="128">
<path d="M0 0 C3 0.5625 3 0.5625 5.4375 2.6875 C7.36652982 6.23691487 7.08064181 7.73869052 6 11.5625 C5.67 12.5525 5.34 13.5425 5 14.5625 C5 15.738125 5 16.91375 5 18.125 C5 21.5625 5 21.5625 4 23.5625 C4.94875 23.624375 5.8975 23.68625 6.875 23.75 C13.19946763 24.6405883 19.71436223 27.80377235 24 32.5625 C25.1446875 31.325 25.1446875 31.325 26.3125 30.0625 C29 27.5625 29 27.5625 32 27.5625 C32.0825 26.799375 32.165 26.03625 32.25 25.25 C33 22.5625 33 22.5625 34.6875 20.75 C37.76427538 19.17003427 39.58608123 18.99351354 43 19.5625 C45.4375 21.75 45.4375 21.75 47 24.5625 C47 27.91065045 46.24976822 29.2438302 44.1875 31.875 C42 33.5625 42 33.5625 38 33.5625 C37.9071875 34.4596875 37.9071875 34.4596875 37.8125 35.375 C36.6763243 38.43393458 34.82669858 39.11291099 32 40.5625 C32.32613281 41.15675781 32.65226562 41.75101563 32.98828125 42.36328125 C36.28065592 48.60810991 38.3942793 54.69575946 40 61.5625 C40.9075 61.5625 41.815 61.5625 42.75 61.5625 C45.16666667 61.5625 47.58333333 61.5625 50 61.5625 C51.175625 61.500625 52.35125 61.43875 53.5625 61.375 C57 61.5625 57 61.5625 58.9375 62.5625 C60.65969311 65.80427527 60.66174953 68.98607839 60 72.5625 C58.375 74.625 58.375 74.625 56 75.5625 C53.19000253 75.32833354 50.70616503 74.76110892 48 74 C45.83241331 73.45119954 45.83241331 73.45119954 42.875 73.5625 C40 73.5625 40 73.5625 38 72.5625 C37.95875 73.490625 37.9175 74.41875 37.875 75.375 C37.0264142 81.55574431 33.38263732 88.17986268 29 92.5625 C29.825 93.325625 30.65 94.08875 31.5 94.875 C34 97.5625 34 97.5625 34 100.5625 C34.94875 100.830625 35.8975 101.09875 36.875 101.375 C40 102.5625 40 102.5625 42 105.5625 C41.9375 109.0625 41.9375 109.0625 41 112.5625 C38.33820316 114.92854164 36.93789883 115.60716185 33.375 115.4375 C30.75608787 114.47263764 29.66620642 113.78410856 28 111.5625 C27.71125 110.758125 27.4225 109.95375 27.125 109.125 C25.71236648 105.90733475 23.78529267 104.63361506 21 102.5625 C20.67 101.9025 20.34 101.2425 20 100.5625 C19.16210938 101.17609375 18.32421875 101.7896875 17.4609375 102.421875 C14.03793739 104.70387507 10.60853537 105.76024537 6.625 106.8125 C4.75714844 107.31523437 4.75714844 107.31523437 2.8515625 107.828125 C1.44003906 108.19164063 1.44003906 108.19164063 0 108.5625 C0 109.47 0 110.3775 0 111.3125 C0 113.72916667 0 116.14583333 0 118.5625 C0.061875 119.738125 0.12375 120.91375 0.1875 122.125 C0 125.5625 0 125.5625 -1 127.5 C-4.2376473 129.22000013 -7.42792027 129.23226495 -11 128.5625 C-13.47505995 126.47416817 -13.91399281 125.25055749 -14.3125 122.0625 C-14 119.5625 -14 119.5625 -13 117.6875 C-11.57165047 114.65225725 -11.93863995 111.87594287 -12 108.5625 C-11.67 107.9025 -11.34 107.2425 -11 106.5625 C-11.94875 106.500625 -12.8975 106.43875 -13.875 106.375 C-20.59736076 105.43030979 -26.73611718 101.70100097 -32 97.5625 C-33.1446875 98.8 -33.1446875 98.8 -34.3125 100.0625 C-37 102.5625 -37 102.5625 -40 102.5625 C-40.0825 103.325625 -40.165 104.08875 -40.25 104.875 C-41 107.5625 -41 107.5625 -42.6875 109.4375 C-45.873385 110.98739 -47.64768852 110.56106087 -51 109.5625 C-52.9375 108.4375 -52.9375 108.4375 -54 106.5625 C-53.87642942 103.1025239 -53.64724014 100.56572221 -51.75 97.625 C-49.41628148 96.20809947 -47.67863922 96.34531304 -45 96.5625 C-44.87625 95.6653125 -44.87625 95.6653125 -44.75 94.75 C-43.79544128 91.9658704 -42.42867729 91.12938858 -40 89.5625 C-40.28746094 88.8509375 -40.57492188 88.139375 -40.87109375 87.40625 C-41.97052465 84.63674933 -43.03003207 81.85762232 -44.0625 79.0625 C-44.40410156 78.1446875 -44.74570312 77.226875 -45.09765625 76.28125 C-45.94936889 73.71505089 -46.53255622 71.22259241 -47 68.5625 C-47.928125 68.583125 -48.85625 68.60375 -49.8125 68.625 C-53 68.5625 -53 68.5625 -56 67.5625 C-56.495 68.0575 -56.495 68.0575 -57 68.5625 C-60.84500171 68.92523601 -63.17819906 69.07612559 -66.5 67 C-68 64.5625 -68 64.5625 -68.0625 61 C-67 57.5625 -67 57.5625 -64.75 55.5625 C-61.56545402 54.40448328 -60.1973829 54.57868988 -57 55.5625 C-54.44080718 56.30549146 -52.58502558 56.5625 -49.875 56.5625 C-47 56.5625 -47 56.5625 -45 57.5625 C-44.979375 56.49 -44.95875 55.4175 -44.9375 54.3125 C-44.21770835 48.14443921 -40.39597807 40.95847807 -36 36.5625 C-36.78375 36.005625 -37.5675 35.44875 -38.375 34.875 C-41 32.5625 -41 32.5625 -42 29.9375 C-42.78366945 27.33011229 -42.78366945 27.33011229 -45.4375 26.4375 C-46.283125 26.14875 -47.12875 25.86 -48 25.5625 C-49.8125 24.375 -49.8125 24.375 -51 22.5625 C-51.36528977 19.1531288 -51.6140629 16.68226176 -49.9375 13.625 C-46.79665674 11.90260208 -44.50181214 12.07101759 -41 12.5625 C-38.46301063 14.9623548 -37.23366582 16.9082357 -36.0625 20.1875 C-34.67650403 23.28560865 -32.88960693 23.90097602 -30 25.5625 C-28.84375 27.65234375 -28.84375 27.65234375 -28 29.5625 C-27.23816406 29.15257813 -26.47632813 28.74265625 -25.69140625 28.3203125 C-19.45639015 25.06658375 -13.94222848 22.71953808 -7 21.5625 C-7.020625 20.634375 -7.04125 19.70625 -7.0625 18.75 C-7 15.5625 -7 15.5625 -6 12.5625 C-6.495 11.5725 -6.495 11.5725 -7 10.5625 C-7.38932198 6.9807378 -7.43596718 5.19968279 -5.375 2.1875 C-3 0.5625 -3 0.5625 0 0 Z M-19 38.5625 C-18.4225 38.830625 -17.845 39.09875 -17.25 39.375 C-14.9674132 40.57969859 -13.0262058 41.97048115 -11 43.5625 C-10.731875 42.61375 -10.46375 41.665 -10.1875 40.6875 C-9 37.5625 -9 37.5625 -6 35.5625 C-10.92715996 35.10057875 -14.50732625 36.7349717 -19 38.5625 Z M2 35.5625 C2.474375 35.93375 2.94875 36.305 3.4375 36.6875 C5.52205802 39.18896962 5.64621491 41.37843418 6 44.5625 C7.423125 43.8509375 7.423125 43.8509375 8.875 43.125 C10.58333333 42.27083333 12.29166667 41.41666667 14 40.5625 C12.37750059 39.72430842 10.75191503 38.8920884 9.125 38.0625 C8.22007813 37.5984375 7.31515625 37.134375 6.3828125 36.65625 C4.13403141 35.42344411 4.13403141 35.42344411 2 35.5625 Z M-11 44.5625 C-11.33 45.5525 -11.66 46.5425 -12 47.5625 C-10.68 47.8925 -9.36 48.2225 -8 48.5625 C-8.66 47.2425 -9.32 45.9225 -10 44.5625 C-10.33 44.5625 -10.66 44.5625 -11 44.5625 Z M-28 46.5625 C-27 48.5625 -27 48.5625 -27 48.5625 Z M5 45.5625 C4.01 46.0575 4.01 46.0575 3 46.5625 C3 47.5525 3 48.5425 3 49.5625 C3.99 49.2325 4.98 48.9025 6 48.5625 C5.67 47.5725 5.34 46.5825 5 45.5625 Z M-29 48.5625 C-31.2568294 51.85370954 -32.4359146 54.61390217 -33 58.5625 C-32.34 58.5625 -31.68 58.5625 -31 58.5625 C-30.67 57.9025 -30.34 57.2425 -30 56.5625 C-27.67843403 56.15520772 -25.3431213 55.81811323 -23 55.5625 C-23.80847729 54.39304208 -24.62189112 53.22699539 -25.4375 52.0625 C-25.88996094 51.4128125 -26.34242187 50.763125 -26.80859375 50.09375 C-27.20175781 49.5884375 -27.59492187 49.083125 -28 48.5625 C-28.33 48.5625 -28.66 48.5625 -29 48.5625 Z M21 48.5625 C22 50.5625 22 50.5625 22 50.5625 Z M22 50.5625 C21.319375 51.738125 21.319375 51.738125 20.625 52.9375 C19 55.5625 19 55.5625 17 57.5625 C17.928125 57.645 18.85625 57.7275 19.8125 57.8125 C23 58.5625 23 58.5625 24.875 60.625 C25.24625 61.264375 25.6175 61.90375 26 62.5625 C25.56453143 55.95531595 25.56453143 55.95531595 22 50.5625 Z M-21 54.5625 C-21.66 55.2225 -22.32 55.8825 -23 56.5625 C-22.67 57.2225 -22.34 57.8825 -22 58.5625 C-21.01 58.5625 -20.02 58.5625 -19 58.5625 C-19.33 57.2425 -19.66 55.9225 -20 54.5625 C-20.33 54.5625 -20.66 54.5625 -21 54.5625 Z M14 56.5625 C13.01 58.0475 13.01 58.0475 12 59.5625 C13.32 59.5625 14.64 59.5625 16 59.5625 C16.33 58.9025 16.66 58.2425 17 57.5625 C16.01 57.2325 15.02 56.9025 14 56.5625 Z M-34 67.5625 C-33.3844197 69.71105454 -32.75726569 71.85629625 -32.125 74 C-31.77695312 75.19496094 -31.42890625 76.38992187 -31.0703125 77.62109375 C-30.3391709 80.67941031 -30.3391709 80.67941031 -28 81.5625 C-28.061875 80.634375 -28.12375 79.70625 -28.1875 78.75 C-28 75.5625 -28 75.5625 -26.5 73.6875 C-26.005 73.31625 -25.51 72.945 -25 72.5625 C-26.4540625 72.1603125 -26.4540625 72.1603125 -27.9375 71.75 C-28.948125 71.358125 -29.95875 70.96625 -31 70.5625 C-31.33 69.5725 -31.66 68.5825 -32 67.5625 C-32.66 67.5625 -33.32 67.5625 -34 67.5625 Z M-22 69.5625 C-22.99 71.0475 -22.99 71.0475 -24 72.5625 C-22.35 72.2325 -20.7 71.9025 -19 71.5625 C-19.33 70.9025 -19.66 70.2425 -20 69.5625 C-20.66 69.5625 -21.32 69.5625 -22 69.5625 Z M12 71.5625 C12 72.5525 12 73.5425 12 74.5625 C13.32 74.2325 14.64 73.9025 16 73.5625 C14.68 72.9025 13.36 72.2425 12 71.5625 Z M24 71.5625 C23.67 72.2225 23.34 72.8825 23 73.5625 C20.67843403 73.96979228 18.3431213 74.30688677 16 74.5625 C16.99 75.0575 16.99 75.0575 18 75.5625 C18.73075648 77.8765622 19.40138258 80.21078869 20 82.5625 C22.47859908 80.3616151 23.61210366 78.49877031 24.6875 75.375 C24.93886719 74.65957031 25.19023438 73.94414063 25.44921875 73.20703125 C25.63097656 72.66433594 25.81273438 72.12164062 26 71.5625 C25.34 71.5625 24.68 71.5625 24 71.5625 Z M-13 80.5625 C-13 81.5525 -13 82.5425 -13 83.5625 C-12.01 83.2325 -11.02 82.9025 -10 82.5625 C-10 81.9025 -10 81.2425 -10 80.5625 C-10.99 80.5625 -11.98 80.5625 -13 80.5625 Z M2 80.5625 C2 81.8825 2 83.2025 2 84.5625 C2.66 84.8925 3.32 85.2225 4 85.5625 C3.67 83.9125 3.34 82.2625 3 80.5625 C2.67 80.5625 2.34 80.5625 2 80.5625 Z M-14 84.5625 C-14.433125 85.01625 -14.86625 85.47 -15.3125 85.9375 C-17.10005235 87.65884671 -18.77304254 88.50641708 -21 89.5625 C-19.38007835 90.42625896 -17.75388139 91.27825854 -16.125 92.125 C-15.22007813 92.60066406 -14.31515625 93.07632813 -13.3828125 93.56640625 C-12.59648438 93.89511719 -11.81015625 94.22382812 -11 94.5625 C-10.34 94.2325 -9.68 93.9025 -9 93.5625 C-9.66 93.19125 -10.32 92.82 -11 92.4375 C-13 90.5625 -13 90.5625 -13.25 87.375 C-13.1675 86.446875 -13.085 85.51875 -13 84.5625 C-13.33 84.5625 -13.66 84.5625 -14 84.5625 Z M4 86.5625 C3.9175 87.51125 3.835 88.46 3.75 89.4375 C3 92.5625 3 92.5625 0.9375 93.9375 C-0.0215625 94.246875 -0.0215625 94.246875 -1 94.5625 C4.27749285 94.02398032 8.25645564 92.78906164 13 90.5625 C12.01 90.2325 11.02 89.9025 10 89.5625 C8.65863633 88.91214186 7.32467746 88.2462045 6 87.5625 C5.34 87.2325 4.68 86.9025 4 86.5625 Z " fill="#CB7037" transform="translate(68,-0.5625)"/>
<path d="M0 0 C6.28169136 4.5448661 10.5480947 9.16985304 12.2265625 16.85546875 C12.73289174 20.05297257 13.15548723 23.23687637 13.484375 26.45703125 C12.494375 26.12703125 11.504375 25.79703125 10.484375 25.45703125 C10.484375 26.11703125 10.484375 26.77703125 10.484375 27.45703125 C11.474375 27.45703125 12.464375 27.45703125 13.484375 27.45703125 C14.60089585 35.64485078 10.16646069 42.54015236 5.66015625 49.12109375 C3.12766459 51.83999862 0.77437735 53.12840561 -2.578125 54.70703125 C-3.62097656 55.2071875 -4.66382813 55.70734375 -5.73828125 56.22265625 C-12.71993602 59.32561393 -20.77911099 59.72932114 -28.19140625 57.73828125 C-30.42153886 56.78306037 -32.44609627 55.72105479 -34.515625 54.45703125 C-35.15113281 54.08320312 -35.78664063 53.709375 -36.44140625 53.32421875 C-42.11566555 49.6547834 -45.53445949 45.16691693 -47.828125 38.83203125 C-48.42401372 35.90675935 -48.69547798 33.42460542 -48.515625 30.45703125 C-46.65011074 34.04455867 -45.09026572 37.73515318 -43.515625 41.45703125 C-43.37125 40.65265625 -43.226875 39.84828125 -43.078125 39.01953125 C-42.515625 36.45703125 -42.515625 36.45703125 -41.515625 35.45703125 C-42.340625 35.02390625 -43.165625 34.59078125 -44.015625 34.14453125 C-44.840625 33.58765625 -45.665625 33.03078125 -46.515625 32.45703125 C-46.515625 31.46703125 -46.515625 30.47703125 -46.515625 29.45703125 C-47.505625 29.45703125 -48.495625 29.45703125 -49.515625 29.45703125 C-50.47244265 20.45585776 -48.49401343 14.00345716 -43.515625 6.45703125 C-41.58488806 4.2906175 -39.99089524 3.03220322 -37.515625 1.45703125 C-36.855625 1.45703125 -36.195625 1.45703125 -35.515625 1.45703125 C-35.515625 0.79703125 -35.515625 0.13703125 -35.515625 -0.54296875 C-23.6946195 -7.59010665 -11.93414079 -7.31985343 0 0 Z M-33.515625 0.45703125 C-32.938125 0.72515625 -32.360625 0.99328125 -31.765625 1.26953125 C-29.4830382 2.47422984 -27.5418308 3.8650124 -25.515625 5.45703125 C-25.2475 4.50828125 -24.979375 3.55953125 -24.703125 2.58203125 C-23.515625 -0.54296875 -23.515625 -0.54296875 -20.515625 -2.54296875 C-25.44278496 -3.00489 -29.02295125 -1.37049705 -33.515625 0.45703125 Z M-12.515625 -2.54296875 C-12.04125 -2.17171875 -11.566875 -1.80046875 -11.078125 -1.41796875 C-8.99356698 1.08350087 -8.86941009 3.27296543 -8.515625 6.45703125 C-7.0925 5.74546875 -7.0925 5.74546875 -5.640625 5.01953125 C-3.93229167 4.16536458 -2.22395833 3.31119792 -0.515625 2.45703125 C-2.13812441 1.61883967 -3.76370997 0.78661965 -5.390625 -0.04296875 C-6.29554687 -0.50703125 -7.20046875 -0.97109375 -8.1328125 -1.44921875 C-10.38159359 -2.68202464 -10.38159359 -2.68202464 -12.515625 -2.54296875 Z M-25.515625 6.45703125 C-25.845625 7.44703125 -26.175625 8.43703125 -26.515625 9.45703125 C-25.195625 9.78703125 -23.875625 10.11703125 -22.515625 10.45703125 C-23.175625 9.13703125 -23.835625 7.81703125 -24.515625 6.45703125 C-24.845625 6.45703125 -25.175625 6.45703125 -25.515625 6.45703125 Z M-42.515625 8.45703125 C-41.515625 10.45703125 -41.515625 10.45703125 -41.515625 10.45703125 Z M-9.515625 7.45703125 C-10.505625 7.95203125 -10.505625 7.95203125 -11.515625 8.45703125 C-11.515625 9.44703125 -11.515625 10.43703125 -11.515625 11.45703125 C-10.525625 11.12703125 -9.535625 10.79703125 -8.515625 10.45703125 C-8.845625 9.46703125 -9.175625 8.47703125 -9.515625 7.45703125 Z M-43.515625 10.45703125 C-45.7724544 13.74824079 -46.9515396 16.50843342 -47.515625 20.45703125 C-46.855625 20.45703125 -46.195625 20.45703125 -45.515625 20.45703125 C-45.185625 19.79703125 -44.855625 19.13703125 -44.515625 18.45703125 C-42.19405903 18.04973897 -39.8587463 17.71264448 -37.515625 17.45703125 C-38.32410229 16.28757333 -39.13751612 15.12152664 -39.953125 13.95703125 C-40.40558594 13.30734375 -40.85804687 12.65765625 -41.32421875 11.98828125 C-41.71738281 11.48296875 -42.11054687 10.97765625 -42.515625 10.45703125 C-42.845625 10.45703125 -43.175625 10.45703125 -43.515625 10.45703125 Z M6.484375 10.45703125 C7.484375 12.45703125 7.484375 12.45703125 7.484375 12.45703125 Z M7.484375 12.45703125 C6.80375 13.63265625 6.80375 13.63265625 6.109375 14.83203125 C4.484375 17.45703125 4.484375 17.45703125 2.484375 19.45703125 C3.4125 19.53953125 4.340625 19.62203125 5.296875 19.70703125 C8.484375 20.45703125 8.484375 20.45703125 10.359375 22.51953125 C10.730625 23.15890625 11.101875 23.79828125 11.484375 24.45703125 C11.04890643 17.8498472 11.04890643 17.8498472 7.484375 12.45703125 Z M-35.515625 16.45703125 C-36.175625 17.11703125 -36.835625 17.77703125 -37.515625 18.45703125 C-37.185625 19.11703125 -36.855625 19.77703125 -36.515625 20.45703125 C-35.525625 20.45703125 -34.535625 20.45703125 -33.515625 20.45703125 C-33.845625 19.13703125 -34.175625 17.81703125 -34.515625 16.45703125 C-34.845625 16.45703125 -35.175625 16.45703125 -35.515625 16.45703125 Z M-0.515625 18.45703125 C-1.505625 19.94203125 -1.505625 19.94203125 -2.515625 21.45703125 C-1.195625 21.45703125 0.124375 21.45703125 1.484375 21.45703125 C1.814375 20.79703125 2.144375 20.13703125 2.484375 19.45703125 C1.494375 19.12703125 0.504375 18.79703125 -0.515625 18.45703125 Z M-36.515625 31.45703125 C-37.505625 32.94203125 -37.505625 32.94203125 -38.515625 34.45703125 C-36.865625 34.12703125 -35.215625 33.79703125 -33.515625 33.45703125 C-33.845625 32.79703125 -34.175625 32.13703125 -34.515625 31.45703125 C-35.175625 31.45703125 -35.835625 31.45703125 -36.515625 31.45703125 Z M-2.515625 33.45703125 C-2.515625 34.44703125 -2.515625 35.43703125 -2.515625 36.45703125 C-1.195625 36.12703125 0.124375 35.79703125 1.484375 35.45703125 C0.164375 34.79703125 -1.155625 34.13703125 -2.515625 33.45703125 Z M9.484375 33.45703125 C9.154375 34.11703125 8.824375 34.77703125 8.484375 35.45703125 C6.16280903 35.86432353 3.8274963 36.20141802 1.484375 36.45703125 C2.474375 36.95203125 2.474375 36.95203125 3.484375 37.45703125 C4.21513148 39.77109345 4.88575758 42.10531994 5.484375 44.45703125 C7.96297408 42.25614635 9.09647866 40.39330156 10.171875 37.26953125 C10.42324219 36.55410156 10.67460938 35.83867188 10.93359375 35.1015625 C11.11535156 34.55886719 11.29710937 34.01617187 11.484375 33.45703125 C10.824375 33.45703125 10.164375 33.45703125 9.484375 33.45703125 Z M-27.515625 42.45703125 C-27.515625 43.44703125 -27.515625 44.43703125 -27.515625 45.45703125 C-26.525625 45.12703125 -25.535625 44.79703125 -24.515625 44.45703125 C-24.515625 43.79703125 -24.515625 43.13703125 -24.515625 42.45703125 C-25.505625 42.45703125 -26.495625 42.45703125 -27.515625 42.45703125 Z M-12.515625 42.45703125 C-12.515625 43.77703125 -12.515625 45.09703125 -12.515625 46.45703125 C-11.855625 46.78703125 -11.195625 47.11703125 -10.515625 47.45703125 C-10.845625 45.80703125 -11.175625 44.15703125 -11.515625 42.45703125 C-11.845625 42.45703125 -12.175625 42.45703125 -12.515625 42.45703125 Z M-28.515625 46.45703125 C-28.94875 46.91078125 -29.381875 47.36453125 -29.828125 47.83203125 C-31.61567735 49.55337796 -33.28866754 50.40094833 -35.515625 51.45703125 C-33.89570335 52.32079021 -32.26950639 53.17278979 -30.640625 54.01953125 C-29.73570313 54.49519531 -28.83078125 54.97085938 -27.8984375 55.4609375 C-27.11210938 55.78964844 -26.32578125 56.11835937 -25.515625 56.45703125 C-24.855625 56.12703125 -24.195625 55.79703125 -23.515625 55.45703125 C-24.175625 55.08578125 -24.835625 54.71453125 -25.515625 54.33203125 C-27.515625 52.45703125 -27.515625 52.45703125 -27.765625 49.26953125 C-27.683125 48.34140625 -27.600625 47.41328125 -27.515625 46.45703125 C-27.845625 46.45703125 -28.175625 46.45703125 -28.515625 46.45703125 Z M-10.515625 48.45703125 C-10.598125 49.40578125 -10.680625 50.35453125 -10.765625 51.33203125 C-11.515625 54.45703125 -11.515625 54.45703125 -13.578125 55.83203125 C-14.5371875 56.14140625 -14.5371875 56.14140625 -15.515625 56.45703125 C-10.23813215 55.91851157 -6.25916936 54.68359289 -1.515625 52.45703125 C-2.505625 52.12703125 -3.495625 51.79703125 -4.515625 51.45703125 C-5.85698867 50.80667311 -7.19094754 50.14073575 -8.515625 49.45703125 C-9.175625 49.12703125 -9.835625 48.79703125 -10.515625 48.45703125 Z " fill="#631F10" transform="translate(82.515625,37.54296875)"/>
<path d="M0 0 C1 2 2 4 3 6 C4.65 6 6.3 6 8 6 C8 6.66 8 7.32 8 8 C8.66 8 9.32 8 10 8 C10.18175781 9.07378906 10.36351562 10.14757812 10.55078125 11.25390625 C10.80424183 12.69018289 11.05817328 14.12637648 11.3125 15.5625 C11.43044922 16.26697266 11.54839844 16.97144531 11.66992188 17.69726562 C12.90822605 24.58731707 14.93402991 30.93402991 20 36 C29.22332682 41.97007083 36.94828141 44.06596399 48 43 C50.57919987 42.13179047 52.78157164 41.13594012 55.1328125 39.77734375 C57.48523999 38.79798586 58.60867822 39.31748744 61 40 C61.474375 39.505 61.94875 39.01 62.4375 38.5 C62.953125 38.005 63.46875 37.51 64 37 C66.5625 37.0625 66.5625 37.0625 69 38 C70.3125 40.0625 70.3125 40.0625 71 42 C71.5775 41.7525 72.155 41.505 72.75 41.25 C75 41 75 41 77.25 42.75 C79 45 79 45 79 48 C79.94875 48.268125 80.8975 48.53625 81.875 48.8125 C85 50 85 50 87 53 C86.9375 56.5 86.9375 56.5 86 60 C83.33820316 62.36604164 81.93789883 63.04466185 78.375 62.875 C75.75608787 61.91013764 74.66620642 61.22160856 73 59 C72.71125 58.195625 72.4225 57.39125 72.125 56.5625 C70.71236648 53.34483475 68.78529267 52.07111506 66 50 C65.67 49.34 65.34 48.68 65 48 C63.74316406 48.92039062 63.74316406 48.92039062 62.4609375 49.859375 C59.03793739 52.14137507 55.60853537 53.19774537 51.625 54.25 C50.37976563 54.58515625 49.13453125 54.9203125 47.8515625 55.265625 C46.91054687 55.50796875 45.96953125 55.7503125 45 56 C45 56.9075 45 57.815 45 58.75 C45 61.16666667 45 63.58333333 45 66 C45.061875 67.175625 45.12375 68.35125 45.1875 69.5625 C45 73 45 73 44 74.9375 C40.7623527 76.65750013 37.57207973 76.66976495 34 76 C31.52494005 73.91166817 31.08600719 72.68805749 30.6875 69.5 C31 67 31 67 32 65.125 C33.42834953 62.08975725 33.06136005 59.31344287 33 56 C33.495 55.01 33.495 55.01 34 54 C33.05125 53.938125 32.1025 53.87625 31.125 53.8125 C24.40263924 52.86780979 18.26388282 49.13850097 13 45 C12.236875 45.825 11.47375 46.65 10.6875 47.5 C8 50 8 50 5 50 C4.9175 50.763125 4.835 51.52625 4.75 52.3125 C4 55 4 55 2.3125 56.875 C-0.873385 58.42489 -2.64768852 57.99856087 -6 57 C-7.9375 55.875 -7.9375 55.875 -9 54 C-8.87642942 50.5400239 -8.64724014 48.00322221 -6.75 45.0625 C-4.41628148 43.64559947 -2.67863922 43.78281304 0 44 C0.0825 43.401875 0.165 42.80375 0.25 42.1875 C1.20455872 39.4033704 2.57132271 38.56688858 5 37 C4.71253906 36.2884375 4.42507812 35.576875 4.12890625 34.84375 C3.02947535 32.07424933 1.96996793 29.29512232 0.9375 26.5 C0.42509766 25.12328125 0.42509766 25.12328125 -0.09765625 23.71875 C-0.94936889 21.15255089 -1.53255622 18.66009241 -2 16 C-2.928125 16.020625 -3.85625 16.04125 -4.8125 16.0625 C-8 16 -8 16 -11 15 C-11.33 15.33 -11.66 15.66 -12 16 C-15.84500171 16.36273601 -18.17819906 16.51362559 -21.5 14.4375 C-23 12 -23 12 -23.0625 8.4375 C-22 5 -22 5 -19.75 3 C-16.56545402 1.84198328 -15.1973829 2.01618988 -12 3 C-9.44080718 3.74299146 -7.58502558 4 -4.875 4 C-2 4 -2 4 0 5 C0 3.35 0 1.7 0 0 Z " fill="#D06E2F" transform="translate(23,52)"/>
<path d="M0 0 C2.5625 0.0625 2.5625 0.0625 5 1 C6.3125 3.0625 6.3125 3.0625 7 5 C7.5775 4.7525 8.155 4.505 8.75 4.25 C11 4 11 4 13.25 5.75 C15 8 15 8 15 11 C16.423125 11.4021875 16.423125 11.4021875 17.875 11.8125 C21 13 21 13 23 16 C22.9375 19.5 22.9375 19.5 22 23 C19.33820316 25.36604164 17.93789883 26.04466185 14.375 25.875 C11.75608787 24.91013764 10.66620642 24.22160856 9 22 C8.71125 21.195625 8.4225 20.39125 8.125 19.5625 C6.71236648 16.34483475 4.78529267 15.07111506 2 13 C1.505 12.01 1.505 12.01 1 11 C-0.25683594 11.92039062 -0.25683594 11.92039062 -1.5390625 12.859375 C-4.96206261 15.14137507 -8.39146463 16.19774537 -12.375 17.25 C-13.62023437 17.58515625 -14.86546875 17.9203125 -16.1484375 18.265625 C-17.08945313 18.50796875 -18.03046875 18.7503125 -19 19 C-19 19.9075 -19 20.815 -19 21.75 C-19 24.16666667 -19 26.58333333 -19 29 C-18.938125 30.175625 -18.87625 31.35125 -18.8125 32.5625 C-19 36 -19 36 -20 37.9375 C-23.2376473 39.65750013 -26.42792027 39.66976495 -30 39 C-32.47505995 36.91166817 -32.91399281 35.68805749 -33.3125 32.5 C-33 30 -33 30 -32 28.125 C-30.57165047 25.08975725 -30.93863995 22.31344287 -31 19 C-30.67 18.34 -30.34 17.68 -30 17 C-32.31 16.67 -34.62 16.34 -37 16 C-36.67 15.01 -36.34 14.02 -36 13 C-33.36 13.66 -30.72 14.32 -28 15 C-27.40267181 12.23735711 -27 9.83967231 -27 7 C-26.31035156 6.97421875 -25.62070312 6.9484375 -24.91015625 6.921875 C-18.8757809 6.5576603 -14.30419462 5.63218026 -8.97265625 2.7421875 C-6.56077669 1.83474767 -5.4218528 2.30951431 -3 3 C-2.525625 2.505 -2.05125 2.01 -1.5625 1.5 C-1.046875 1.005 -0.53125 0.51 0 0 Z " fill="#CD6C31" transform="translate(87,89)"/>
<path d="M0 0 C4.49763181 2.31816265 7.91985219 5.69533664 9.9609375 10.3515625 C10.80303294 15.46553791 10.24506873 19.68843196 7.9609375 24.3515625 C4.80953043 28.24327856 1.34188388 31.74727976 -3.609375 33.00390625 C-9.48322084 33.22844164 -13.35385039 31.81861946 -18.0390625 28.3515625 C-22.83585521 23.04984425 -23.15062577 20.26848554 -23.0390625 13.3515625 C-23.6990625 13.3515625 -24.3590625 13.3515625 -25.0390625 13.3515625 C-25.0390625 12.6915625 -25.0390625 12.0315625 -25.0390625 11.3515625 C-24.3790625 11.0215625 -23.7190625 10.6915625 -23.0390625 10.3515625 C-22.6265625 9.6090625 -22.2140625 8.8665625 -21.7890625 8.1015625 C-16.76290139 0.20330933 -9.05811674 -2.88055053 0 0 Z " fill="#B6360D" transform="translate(71.0390625,48.6484375)"/>
<path d="M0 0 C5.99104299 4.54067974 5.99104299 4.54067974 7.34375 7.24609375 C6.68375 7.24609375 6.02375 7.24609375 5.34375 7.24609375 C5.694375 7.98859375 6.045 8.73109375 6.40625 9.49609375 C7.40877118 12.43682255 7.64118523 13.46587541 6.34375 16.24609375 C3.33007991 19.25976384 0.50420249 19.77331506 -3.65625 20.24609375 C-4.254375 19.31796875 -4.8525 18.38984375 -5.46875 17.43359375 C-7.10897845 15.04354657 -8.5281417 13.16139122 -10.65625 11.24609375 C-10.32625 10.25609375 -9.99625 9.26609375 -9.65625 8.24609375 C-10.31625 8.24609375 -10.97625 8.24609375 -11.65625 8.24609375 C-11.65625 9.23609375 -11.65625 10.22609375 -11.65625 11.24609375 C-13.44883558 11.15916234 -15.24040144 11.05098871 -17.03125 10.93359375 C-18.02898437 10.87558594 -19.02671875 10.81757812 -20.0546875 10.7578125 C-20.91320312 10.58894531 -21.77171875 10.42007813 -22.65625 10.24609375 C-24.89176759 6.89281736 -24.82908528 6.33865718 -24.28125 2.55859375 C-24.11496094 1.34623047 -24.11496094 1.34623047 -23.9453125 0.109375 C-23.84992187 -0.50550781 -23.75453125 -1.12039062 -23.65625 -1.75390625 C-26.29625 -1.09390625 -28.93625 -0.43390625 -31.65625 0.24609375 C-30.99625 0.57609375 -30.33625 0.90609375 -29.65625 1.24609375 C-29.65625 2.56609375 -29.65625 3.88609375 -29.65625 5.24609375 C-28.99625 5.57609375 -28.33625 5.90609375 -27.65625 6.24609375 C-30.07181126 9.43808542 -32.33628538 11.99326062 -35.65625 14.24609375 C-37.59375 13.43359375 -37.59375 13.43359375 -39.65625 12.24609375 C-40.65625 9.24609375 -40.65625 9.24609375 -39.65625 6.24609375 C-40.31625 5.58609375 -40.97625 4.92609375 -41.65625 4.24609375 C-37.90625 1.24609375 -37.90625 1.24609375 -35.65625 1.24609375 C-35.65625 0.58609375 -35.65625 -0.07390625 -35.65625 -0.75390625 C-23.90254073 -7.76092524 -11.71580305 -7.73587583 0 0 Z M-12.65625 -2.75390625 C-12.181875 -2.38265625 -11.7075 -2.01140625 -11.21875 -1.62890625 C-9.13419198 0.87256337 -9.01003509 3.06202793 -8.65625 6.24609375 C-7.233125 5.53453125 -7.233125 5.53453125 -5.78125 4.80859375 C-4.07291667 3.95442708 -2.36458333 3.10026042 -0.65625 2.24609375 C-2.27874941 1.40790217 -3.90433497 0.57568215 -5.53125 -0.25390625 C-6.43617187 -0.71796875 -7.34109375 -1.18203125 -8.2734375 -1.66015625 C-10.52221859 -2.89296214 -10.52221859 -2.89296214 -12.65625 -2.75390625 Z " fill="#6A2716" transform="translate(82.65625,37.75390625)"/>
<path d="M0 0 C2 3 2 3 2 6 C2.66 6 3.32 6 4 6 C4.45890625 6.92683594 4.9178125 7.85367188 5.390625 8.80859375 C6.00969681 10.01859774 6.62952828 11.22821327 7.25 12.4375 C7.55035156 13.04916016 7.85070312 13.66082031 8.16015625 14.29101562 C9.95346202 17.86215323 9.95346202 17.86215323 13.234375 19.91015625 C14.10835937 19.95462891 14.10835937 19.95462891 15 20 C15.33 18.35 15.66 16.7 16 15 C14.68 14.01 13.36 13.02 12 12 C12.66 12 13.32 12 14 12 C14.33 11.34 14.66 10.68 15 10 C15.639375 10.886875 16.27875 11.77375 16.9375 12.6875 C23.28578045 20.2028738 32.85772512 22.47068438 42 25 C41.36578125 25.27585937 40.7315625 25.55171875 40.078125 25.8359375 C37.30455568 27.3895534 36.93392216 29.04257982 36 32 C33.0703125 31.56054688 33.0703125 31.56054688 30.140625 31.12109375 C27.99894723 30.85969125 27.99894723 30.85969125 26.09375 31.6875 C22.74842833 32.18680174 20.97227074 30.40975515 18.25 28.5625 C16.77273437 27.57443359 16.77273437 27.57443359 15.265625 26.56640625 C14.51796875 26.04949219 13.7703125 25.53257813 13 25 C12.236875 25.825 11.47375 26.65 10.6875 27.5 C8 30 8 30 5 30 C4.87625 31.1446875 4.87625 31.1446875 4.75 32.3125 C4 35 4 35 2.3125 36.875 C-0.873385 38.42489 -2.64768852 37.99856087 -6 37 C-7.9375 35.875 -7.9375 35.875 -9 34 C-8.87642942 30.5400239 -8.64724014 28.00322221 -6.75 25.0625 C-4.41628148 23.64559947 -2.67863922 23.78281304 0 24 C0.0825 23.401875 0.165 22.80375 0.25 22.1875 C1.20455872 19.4033704 2.57132271 18.56688858 5 17 C4.5978125 16.01 4.5978125 16.01 4.1875 15 C3.795625 14.01 3.40375 13.02 3 12 C2.73574219 11.34902344 2.47148437 10.69804688 2.19921875 10.02734375 C1.79123047 8.99287109 1.79123047 8.99287109 1.375 7.9375 C1.11460938 7.28652344 0.85421875 6.63554688 0.5859375 5.96484375 C0 4 0 4 0 0 Z " fill="#D47333" transform="translate(23,72)"/>
<path d="M0 0 C0.33 0 0.66 0 1 0 C0.54177532 3.46941546 0.10868317 6.67395049 -1 10 C-0.34 10.66 0.32 11.32 1 12 C0.0925 12.598125 -0.815 13.19625 -1.75 13.8125 C-4.87747356 15.85281774 -4.87747356 15.85281774 -7.1875 17.75 C-9 19 -9 19 -12 19 C-12 19.66 -12 20.32 -12 21 C-11.01 21.33 -10.02 21.66 -9 22 C-9.99 22.33 -10.98 22.66 -12 23 C-12 23.66 -12 24.32 -12 25 C-11.34 25 -10.68 25 -10 25 C-9.8125 28.375 -9.8125 28.375 -10 32 C-10.99 32.66 -11.98 33.32 -13 34 C-11.88625 34.0928125 -11.88625 34.0928125 -10.75 34.1875 C-7.13934271 35.25428511 -6.15540664 36.9824307 -4 40 C-3.01769502 41.0173873 -2.02530403 42.02596117 -1 43 C-1.66 43.66 -2.32 44.32 -3 45 C-2.34 45 -1.68 45 -1 45 C-0.67 44.34 -0.34 43.68 0 43 C1.79258558 43.08693141 3.58415144 43.19510504 5.375 43.3125 C6.87160156 43.39951172 6.87160156 43.39951172 8.3984375 43.48828125 C9.25695312 43.65714844 10.11546875 43.82601562 11 44 C11.66 44.99 12.32 45.98 13 47 C13 45.35 13 43.7 13 42 C13.99 42 14.98 42 16 42 C16 42.66 16 43.32 16 44 C16.99 44.495 16.99 44.495 18 45 C18 49 18 49 17 52 C16.34 51.34 15.68 50.68 15 50 C14.34 51.65 13.68 53.3 13 55 C12.34 55 11.68 55 11 55 C11 53.02 11 51.04 11 49 C6.71 48.67 2.42 48.34 -2 48 C-2.33 48.66 -2.66 49.32 -3 50 C-3.33 49.34 -3.66 48.68 -4 48 C-4.99 48.66 -5.98 49.32 -7 50 C-6.896875 49.29875 -6.79375 48.5975 -6.6875 47.875 C-7.14210034 43.69267689 -9.16466151 42.04798887 -12 39 C-14.46800047 40.15173355 -16.04783565 41.04783565 -18 43 C-18.625 40.625 -18.625 40.625 -19 38 C-18.34 37.34 -17.68 36.68 -17 36 C-17.825 35.566875 -18.65 35.13375 -19.5 34.6875 C-20.325 34.130625 -21.15 33.57375 -22 33 C-22 32.01 -22 31.02 -22 30 C-22.99 30 -23.98 30 -25 30 C-25.92914565 21.25914834 -24.24146752 14.18898527 -19 7 C-16.796875 6.1640625 -16.796875 6.1640625 -15 6 C-13.75453595 8.49092811 -14.2232422 9.41080733 -15 12 C-13.68 12.66 -12.36 13.32 -11 14 C-10.01 13.236875 -9.02 12.47375 -8 11.6875 C-7.443125 11.25824219 -6.88625 10.82898437 -6.3125 10.38671875 C-4.65629795 8.95508863 -4.65629795 8.95508863 -5 6 C-4.67 5.01 -4.34 4.02 -4 3 C-3.34 3.66 -2.68 4.32 -2 5 C-1.34 3.35 -0.68 1.7 0 0 Z M-18 9 C-17 11 -17 11 -17 11 Z M-19 11 C-21.2568294 14.29120954 -22.4359146 17.05140217 -23 21 C-22.34 21 -21.68 21 -21 21 C-20.67 20.34 -20.34 19.68 -20 19 C-17.67843403 18.59270772 -15.3431213 18.25561323 -13 18 C-13.80847729 16.83054208 -14.62189112 15.66449539 -15.4375 14.5 C-15.88996094 13.8503125 -16.34242187 13.200625 -16.80859375 12.53125 C-17.20175781 12.0259375 -17.59492187 11.520625 -18 11 C-18.33 11 -18.66 11 -19 11 Z " fill="#5F2012" transform="translate(58,37)"/>
<path d="M0 0 C2.53698937 2.3998548 3.76633418 4.3457357 4.9375 7.625 C6.32169913 10.71909218 8.04061595 11.48236715 11 13 C12 14 12 14 12.4375 16.25 C11.76954321 20.44858555 9.3691394 21.54333585 6 24 C2.5905607 22.34135385 1.19801314 21.40427683 -0.5 17.9375 C-2.30088405 14.41076874 -3.35545166 14.18447821 -7 13 C-8.8125 11.8125 -8.8125 11.8125 -10 10 C-10.36528977 6.5906288 -10.6140629 4.11976176 -8.9375 1.0625 C-5.79665674 -0.65989792 -3.50181214 -0.49148241 0 0 Z " fill="#773828" transform="translate(27,12)"/>
<path d="M0 0 C0.33 0 0.66 0 1 0 C1.33 2.64 1.66 5.28 2 8 C4.07553648 8.5534764 5.84365964 9 8 9 C8.33 8.34 8.66 7.68 9 7 C10.07446132 15.90267948 6.63979531 22.56914794 2 30 C0.41478524 31.79501419 -1.23249024 33.37596685 -3 35 C-3.66 34.67 -4.32 34.34 -5 34 C-5.625 31.9375 -5.625 31.9375 -6 30 C-8.43717258 30.27034634 -8.43717258 30.27034634 -11 31 C-11.99 32.485 -11.99 32.485 -13 34 C-13 33.34 -13 32.68 -13 32 C-13.66 32 -14.32 32 -15 32 C-15 31.34 -15 30.68 -15 30 C-14.12021484 29.6596875 -14.12021484 29.6596875 -13.22265625 29.3125 C-6.69594311 25.4584128 -3.32151657 16.34521087 -1.48828125 9.3046875 C-0.83174811 6.20585107 -0.34232594 3.14939865 0 0 Z " fill="#D27235" transform="translate(97,60)"/>
<path d="M0 0 C4.49763181 2.31816265 7.91985219 5.69533664 9.9609375 10.3515625 C10.80303294 15.46553791 10.24506873 19.68843196 7.9609375 24.3515625 C4.80953043 28.24327856 1.34188388 31.74727976 -3.609375 33.00390625 C-9.48322084 33.22844164 -13.35385039 31.81861946 -18.0390625 28.3515625 C-22.83585521 23.04984425 -23.15062577 20.26848554 -23.0390625 13.3515625 C-23.6990625 13.3515625 -24.3590625 13.3515625 -25.0390625 13.3515625 C-25.0390625 12.6915625 -25.0390625 12.0315625 -25.0390625 11.3515625 C-24.3790625 11.0215625 -23.7190625 10.6915625 -23.0390625 10.3515625 C-22.6265625 9.6090625 -22.2140625 8.8665625 -21.7890625 8.1015625 C-16.76290139 0.20330933 -9.05811674 -2.88055053 0 0 Z M-20.0390625 7.3515625 C-21.24179069 9.75701888 -21.13977722 11.30153203 -21.1015625 13.9765625 C-21.09253906 14.79382812 -21.08351562 15.61109375 -21.07421875 16.453125 C-21.06261719 17.07960938 -21.05101562 17.70609375 -21.0390625 18.3515625 C-20.0490625 18.6815625 -19.0590625 19.0115625 -18.0390625 19.3515625 C-17.7090625 21.0015625 -17.3790625 22.6515625 -17.0390625 24.3515625 C-15.3890625 24.6815625 -13.7390625 25.0115625 -12.0390625 25.3515625 C-11.7090625 26.3415625 -11.3790625 27.3315625 -11.0390625 28.3515625 C-10.0490625 28.3515625 -9.0590625 28.3515625 -8.0390625 28.3515625 C-8.0390625 27.6915625 -8.0390625 27.0315625 -8.0390625 26.3515625 C-7.1315625 26.3928125 -6.2240625 26.4340625 -5.2890625 26.4765625 C-1.99724087 26.34995398 -0.76390065 26.05458634 1.9609375 24.3515625 C3.0334375 23.8771875 4.1059375 23.4028125 5.2109375 22.9140625 C8.4049073 19.93786337 8.46024576 19.17951131 8.6484375 14.9765625 C8.43626203 11.36475738 8.0718548 8.72317586 5.8984375 5.7890625 C0.95398323 1.68621747 -4.52155443 0.78276955 -10.8203125 0.890625 C-14.80890755 1.71924158 -17.42337585 4.34663677 -20.0390625 7.3515625 Z " fill="#C65620" transform="translate(71.0390625,48.6484375)"/>
<path d="M0 0 C2.04990364 1.13098132 3.38182528 2.14012287 4.8125 4 C4.8125 4.99 4.8125 5.98 4.8125 7 C5.76125 7.268125 6.71 7.53625 7.6875 7.8125 C10.8125 9 10.8125 9 12.8125 12 C12.75 15.5 12.75 15.5 11.8125 19 C9.15070316 21.36604164 7.75039883 22.04466185 4.1875 21.875 C1.56858787 20.91013764 0.47870642 20.22160856 -1.1875 18 C-1.47625 17.195625 -1.765 16.39125 -2.0625 15.5625 C-3.0444014 12.77871458 -3.0444014 12.77871458 -5.8125 10.9375 C-6.59625 10.298125 -7.38 9.65875 -8.1875 9 C-8.1875 5 -8.1875 5 -5.4375 2.1875 C-2.1875 0 -2.1875 0 0 0 Z " fill="#8B4B3A" transform="translate(97.1875,93)"/>
<path d="M0 0 C3.7952131 1.49097658 5.61042731 3.75700849 8 7 C6.8125 9.4375 6.8125 9.4375 5 12 C2.3125 12.8125 2.3125 12.8125 0 13 C-0.0825 13.763125 -0.165 14.52625 -0.25 15.3125 C-1 18 -1 18 -2.6875 19.875 C-5.873385 21.42489 -7.64768852 20.99856087 -11 20 C-12.9375 18.875 -12.9375 18.875 -14 17 C-13.87642942 13.5400239 -13.64724014 11.00322221 -11.75 8.0625 C-9.41628148 6.64559947 -7.67863922 6.78281304 -5 7 C-4.9175 6.401875 -4.835 5.80375 -4.75 5.1875 C-3.79544128 2.4033704 -2.42867729 1.56688858 0 0 Z " fill="#BE5222" transform="translate(28,89)"/>
<path d="M0 0 C0.66 0.33 1.32 0.66 2 1 C1.34 1.66 0.68 2.32 0 3 C0.33 3.99 0.66 4.98 1 6 C-0.32 6 -1.64 6 -3 6 C-2.67 7.32 -2.34 8.64 -2 10 C-0.02 9.67 1.96 9.34 4 9 C2.60789736 11.96404628 0.96642353 14.52782057 -0.9375 17.1875 C-3.91878119 21.57559603 -5.6252666 25.89901555 -7 31 C-7.66 31 -8.32 31 -9 31 C-9 30.34 -9 29.68 -9 29 C-10.98 29.33 -12.96 29.66 -15 30 C-16.6616041 25.0151877 -16.86011553 21.96289687 -14.75390625 17.15625 C-10.87524479 10.06179301 -6.38932438 4.92600973 0 0 Z " fill="#D37131" transform="translate(40,29)"/>
<path d="M0 0 C2.62314969 0.76155959 4.33681517 0.98652739 7.125 0.875 C8.07375 0.91625 9.0225 0.9575 10 1 C12.79921583 5.19882375 11.86558093 7.12127113 11 12 C10 13 10 13 7.125 13.125 C4 13 4 13 1 12 C0.67 12.33 0.34 12.66 0 13 C-3.84500171 13.36273601 -6.17819906 13.51362559 -9.5 11.4375 C-11 9 -11 9 -11.0625 5.4375 C-10 2 -10 2 -7.75 0 C-4.56545402 -1.15801672 -3.1973829 -0.98381012 0 0 Z " fill="#825049" transform="translate(11,55)"/>
<path d="M0 0 C3.33333333 0 6.66666667 0 10 0 C11.175625 -0.061875 12.35125 -0.12375 13.5625 -0.1875 C17 0 17 0 18.9375 1 C20.65969311 4.24177527 20.66174953 7.42357839 20 11 C18.375 13.0625 18.375 13.0625 16 14 C13.19000253 13.76583354 10.70616503 13.19860892 8 12.4375 C5.83241331 11.88869954 5.83241331 11.88869954 2.875 12 C0 12 0 12 -2 11 C-2.19622241 6.78121808 -1.80230168 3.82989106 0 0 Z " fill="#BD511F" transform="translate(108,61)"/>
<path d="M0 0 C0.99 0.33 1.98 0.66 3 1 C3.33 0.67 3.66 0.34 4 0 C12.93939779 0.1465475 21.81496491 3.47652761 28.25 9.875 C28.8275 10.57625 29.405 11.2775 30 12 C29.38125 12.268125 28.7625 12.53625 28.125 12.8125 C25.7004767 13.95556848 25.7004767 13.95556848 24 17 C23.278125 16.401875 22.55625 15.80375 21.8125 15.1875 C16.75237119 11.25184426 13.54710842 9.81317157 7.2265625 9.31640625 C4.11307161 8.87396281 1.68611641 7.58411993 -1 6 C-1.042721 4.33388095 -1.04063832 2.66617115 -1 1 C-0.67 0.67 -0.34 0.34 0 0 Z " fill="#D06F32" transform="translate(64,24)"/>
<path d="M0 0 C3 1 3 1 4.61328125 3.13671875 C6.1981694 6.40917794 6.71495904 9.21391883 7.1875 12.8125 C7.34605469 13.97394531 7.50460938 15.13539062 7.66796875 16.33203125 C7.77753906 17.21246094 7.88710937 18.09289062 8 19 C7.01 18.67 6.02 18.34 5 18 C5 19.65 5 21.3 5 23 C5.66 23 6.32 23 7 23 C7 25 7 25 5.4375 27.125 C2.11297502 29.68232691 0.10250184 29.51281273 -4 29 C-6.21875 27.81640625 -6.21875 27.81640625 -8 26 C-8.3125 23.40625 -8.3125 23.40625 -8 20.5 C-7.9175 19.5409375 -7.835 18.581875 -7.75 17.59375 C-6.83173507 14.41808378 -5.85819733 13.58090768 -3 12 C0.125 11.625 0.125 11.625 3 12 C3.99 13.485 3.99 13.485 5 15 C4.690625 13.7625 4.38125 12.525 4.0625 11.25 C3.375 8.5 2.6875 5.75 2 3 C1.34 3 0.68 3 0 3 C0 2.01 0 1.02 0 0 Z " fill="#581709" transform="translate(88,45)"/>
<path d="M0 0 C3 1.5625 3 1.5625 5 4 C5.625 7.5625 5.625 7.5625 5 11 C1.04342717 14.95657283 -4.69160943 14.70108092 -10 15 C-12.46220488 11.30669268 -12.67270703 8.2863512 -12 4 C-9.18381331 -0.69364448 -5.07603549 -0.97500088 0 0 Z " fill="#D47537" transform="translate(68,56)"/>
<path d="M0 0 C0.99 0.33 1.98 0.66 3 1 C3.33 2.65 3.66 4.3 4 6 C5.65 5.01 7.3 4.02 9 3 C9.66 3.66 10.32 4.32 11 5 C9.68 5.99 8.36 6.98 7 8 C7.57344937 10.86724686 7.8614515 11.8614515 10 14 C12.68839385 14.26991906 15.29141936 14.08737357 18 14 C17.8125 15.875 17.8125 15.875 17 18 C14.11280405 19.48261414 11.16023369 20.29772585 8 21 C7.401875 20.071875 6.80375 19.14375 6.1875 18.1875 C4.54727155 15.79745282 3.1281083 13.91529747 1 12 C1.33 11.01 1.66 10.02 2 9 C1.34 9 0.68 9 0 9 C0 9.99 0 10.98 0 12 C-1.79260132 11.94004678 -3.58425795 11.8512759 -5.375 11.75 C-6.87160156 11.68039063 -6.87160156 11.68039063 -8.3984375 11.609375 C-9.68621094 11.30773437 -9.68621094 11.30773437 -11 11 C-11.66 9.68 -12.32 8.36 -13 7 C-8.71 7 -4.42 7 0 7 C0 4.69 0 2.38 0 0 Z " fill="#54190F" transform="translate(71,37)"/>
<path d="M0 0 C3 3 6 6 9 9 C8.34 9.66 7.68 10.32 7 11 C7.66 11 8.32 11 9 11 C9.33 10.34 9.66 9.68 10 9 C11.79258558 9.08693141 13.58415144 9.19510504 15.375 9.3125 C16.87160156 9.39951172 16.87160156 9.39951172 18.3984375 9.48828125 C19.68621094 9.74158203 19.68621094 9.74158203 21 10 C21.99 11.485 21.99 11.485 23 13 C23 11.35 23 9.7 23 8 C23.99 8 24.98 8 26 8 C26 8.66 26 9.32 26 10 C26.66 10.33 27.32 10.66 28 11 C28 15 28 15 27 18 C26.34 17.34 25.68 16.68 25 16 C24.01 18.475 24.01 18.475 23 21 C22.34 21 21.68 21 21 21 C21 19.02 21 17.04 21 15 C16.71 14.67 12.42 14.34 8 14 C7.67 14.66 7.34 15.32 7 16 C6.67 15.34 6.34 14.68 6 14 C5.01 14.66 4.02 15.32 3 16 C3.0721875 15.27425781 3.144375 14.54851562 3.21875 13.80078125 C2.9415136 10.25116516 1.76177726 8.89355494 -0.5 6.1875 C-1.1496875 5.39730469 -1.799375 4.60710937 -2.46875 3.79296875 C-2.9740625 3.20128906 -3.479375 2.60960938 -4 2 C-2.68 1.34 -1.36 0.68 0 0 Z " fill="#4D170E" transform="translate(48,71)"/>
<path d="M0 0 C0.98484375 0.00902344 1.9696875 0.01804687 2.984375 0.02734375 C4.10585937 0.04474609 4.10585937 0.04474609 5.25 0.0625 C5.25 0.3925 5.25 0.7225 5.25 1.0625 C4.53714844 1.17207031 3.82429688 1.28164063 3.08984375 1.39453125 C-2.62594422 2.34075187 -7.54195618 3.51634524 -12.75 6.0625 C-12.09 6.3925 -11.43 6.7225 -10.75 7.0625 C-10.75 8.3825 -10.75 9.7025 -10.75 11.0625 C-10.09 11.3925 -9.43 11.7225 -8.75 12.0625 C-11.16556126 15.25449167 -13.43003538 17.80966687 -16.75 20.0625 C-18.6875 19.25 -18.6875 19.25 -20.75 18.0625 C-21.75 15.0625 -21.75 15.0625 -20.75 12.0625 C-21.41 11.4025 -22.07 10.7425 -22.75 10.0625 C-19 7.0625 -19 7.0625 -16.75 7.0625 C-16.75 6.4025 -16.75 5.7425 -16.75 5.0625 C-10.8137011 1.52355258 -7.00793502 -0.0834278 0 0 Z " fill="#8B381D" transform="translate(63.75,31.9375)"/>
<path d="M0 0 C1.81293089 0.14037521 3.6253443 0.28744889 5.4375 0.4375 C6.95150391 0.55931641 6.95150391 0.55931641 8.49609375 0.68359375 C11 1 11 1 12 2 C12.4534413 8.12145749 12.4534413 8.12145749 11 10.9375 C7.7623527 12.65750013 4.57207973 12.66976495 1 12 C-1.50098148 9.88979687 -1.91930259 8.66171875 -2.3125 5.4375 C-2 3 -2 3 0 0 Z " fill="#D07842" transform="translate(56,116)"/>
<path d="M0 0 C3.5625 0.5 3.5625 0.5 5.875 2.5625 C7.5625 5.5 7.5625 5.5 8.5625 9.1875 C9.2084113 12.58621888 9.2084113 12.58621888 11.6875 13.9375 C12.30625 14.123125 12.925 14.30875 13.5625 14.5 C13.2325 15.16 12.9025 15.82 12.5625 16.5 C11.5725 16.5 10.5825 16.5 9.5625 16.5 C8.86125 15.51 8.16 14.52 7.4375 13.5 C5.74079594 11.27601253 5.03812691 10.58153604 2.23828125 10.1015625 C-0.01365159 10.1227738 -2.20156551 10.23694888 -4.4375 10.5 C-5.0975 8.19 -5.7575 5.88 -6.4375 3.5 C-4.4802047 0.73675957 -3.43360113 0.49943289 0 0 Z " fill="#E29254" transform="translate(23.4375,11.5)"/>
<path d="M0 0 C3 0.5625 3 0.5625 5.4375 2.6875 C7.3391456 6.1865279 7.05082025 7.79706077 6 11.5625 C2.0186217 12.8896261 -1.85045227 12.63165913 -6 12.5625 C-7.42041821 9.72166359 -7.31452272 7.70772722 -7 4.5625 C-4.88658096 1.47365679 -3.68753254 0.69141235 0 0 Z " fill="#D06F37" transform="translate(68,-0.5625)"/>
<path d="M0 0 C2.4375 2.1875 2.4375 2.1875 4 5 C3.84077523 8.42333251 3.4368763 9.5631237 1 12 C1 11.01 1 10.02 1 9 C-0.11375 9.165 -1.2275 9.33 -2.375 9.5 C-6 10 -6 10 -8 10 C-8.99 10.33 -9.98 10.66 -11 11 C-11.66 10.34 -12.32 9.68 -13 9 C-12.21448343 7.68381002 -11.4213763 6.37214772 -10.625 5.0625 C-10.18414062 4.33160156 -9.74328125 3.60070312 -9.2890625 2.84765625 C-6.84995175 -0.6484025 -4.0217122 -0.48260546 0 0 Z " fill="#D98B58" transform="translate(111,19)"/>
<path d="M0 0 C0.33 0 0.66 0 1 0 C0.54177532 3.46941546 0.10868317 6.67395049 -1 10 C-0.34 10.66 0.32 11.32 1 12 C0.0925 12.598125 -0.815 13.19625 -1.75 13.8125 C-4.22901481 15.48106766 -6.63317911 17.17936855 -9 19 C-17.31677019 15.80124224 -17.31677019 15.80124224 -20 12 C-19.75 9.25 -19.75 9.25 -19 7 C-17.68 6.67 -16.36 6.34 -15 6 C-13.75453595 8.49092811 -14.2232422 9.41080733 -15 12 C-13.68 12.66 -12.36 13.32 -11 14 C-10.01 13.236875 -9.02 12.47375 -8 11.6875 C-7.1646875 11.04361328 -7.1646875 11.04361328 -6.3125 10.38671875 C-4.65629795 8.95508863 -4.65629795 8.95508863 -5 6 C-4.67 5.01 -4.34 4.02 -4 3 C-3.34 3.66 -2.68 4.32 -2 5 C-1.34 3.35 -0.68 1.7 0 0 Z M-18 9 C-17 11 -17 11 -17 11 Z " fill="#50160B" transform="translate(58,37)"/>
<path d="M0 0 C3 0.4375 3 0.4375 4.875 1.5 C6.59944167 4.46987177 6.24840147 7.08408015 6 10.4375 C5 11.4375 5 11.4375 2.75 11.5703125 C1.8425 11.56773438 0.935 11.56515625 0 11.5625 C-1.36125 11.56636719 -1.36125 11.56636719 -2.75 11.5703125 C-5 11.4375 -5 11.4375 -6 10.4375 C-6.28860382 7.19070705 -6.28076562 5.03022742 -4.875 2.0625 C-3 0.4375 -3 0.4375 0 0 Z " fill="#75382D" transform="translate(67,10.5625)"/>
<path d="M0 0 C4.34575695 1.55320573 7.58665013 4.02507081 10 8 C9.67 8.66 9.34 9.32 9 10 C8.484375 9.21625 7.96875 8.4325 7.4375 7.625 C3.51523215 3.40101923 -1.01150149 2.91761438 -6.5625 2.5625 C-9.90763793 2.63670954 -11.80802292 3.16565842 -14.4375 5.25 C-18.37342315 9.47391752 -19.48253304 11.96998604 -19.31640625 17.90625 C-18.62409955 22.48744002 -16.34660046 25.81182313 -12.875 28.875 C-8.67669984 30.5178131 -4.47495468 30.74801226 0 31 C0 31.33 0 31.66 0 32 C-10.26065411 32.90981169 -10.26065411 32.90981169 -14.28515625 30.8046875 C-17.85444584 27.7885999 -20.75469803 24.6885096 -21.1953125 19.859375 C-21.13020833 17.90625 -21.06510417 15.953125 -21 14 C-21.66 14 -22.32 14 -23 14 C-23 13.34 -23 12.68 -23 12 C-22.34 11.67 -21.68 11.34 -21 11 C-20.5875 10.2575 -20.175 9.515 -19.75 8.75 C-14.85673591 1.060585 -8.77343007 -0.95877305 0 0 Z " fill="#D47945" transform="translate(69,48)"/>
<path d="M0 0 C1.64630328 0.14042877 3.29204179 0.28749329 4.9375 0.4375 C6.31228516 0.55931641 6.31228516 0.55931641 7.71484375 0.68359375 C10 1 10 1 11 2 C11.26293056 6.03160191 11.29404844 7.55892734 9 11 C6.8359375 11.29296875 6.8359375 11.29296875 4.375 11.1875 C3.55773438 11.16042969 2.74046875 11.13335937 1.8984375 11.10546875 C1.27195313 11.07066406 0.64546875 11.03585938 0 11 C-1.49297212 8.01405576 -1.11755228 5.29146376 -1 2 C-0.67 1.34 -0.34 0.68 0 0 Z " fill="#612215" transform="translate(57,106)"/>
<path d="M0 0 C3.22194776 2.33591212 4.7285412 3.67981189 5.54296875 7.640625 C5.68924367 10.59775035 5.63987323 13.10723975 5 16 C2.1875 18.75 2.1875 18.75 -1 20 C-1.99 19.67 -2.98 19.34 -4 19 C-4.66 19.33 -5.32 19.66 -6 20 C-8.6723621 20.13415472 -11.32250488 20.04318541 -14 20 C-14.33 19.34 -14.66 18.68 -15 18 C-14.24074219 17.79503906 -13.48148438 17.59007813 -12.69921875 17.37890625 C-11.70535156 17.10949219 -10.71148437 16.84007813 -9.6875 16.5625 C-8.70136719 16.29566406 -7.71523437 16.02882813 -6.69921875 15.75390625 C-4.78482474 15.21920575 -2.88566385 14.62855462 -1 14 C-1 12.35 -1 10.7 -1 9 C-0.67 10.32 -0.34 11.64 0 13 C0.66 13 1.32 13 2 13 C1.47519999 6.71091518 1.47519999 6.71091518 -1 1 C-0.67 0.67 -0.34 0.34 0 0 Z " fill="#B93D11" transform="translate(74,53)"/>
<path d="M0 0 C0.79953138 3.28696233 1.09658936 4.71023192 0 8 C-1.32 8 -2.64 8 -4 8 C-5.77409808 9.92022703 -5.77409808 9.92022703 -7 12 C-7.99 11.67 -8.98 11.34 -10 11 C-11.34293553 4.6515775 -11.34293553 4.6515775 -9.75 1.625 C-6.4811349 -1.41037474 -4.06783197 -0.98947264 0 0 Z " fill="#DA834B" transform="translate(11,55)"/>
<path d="M0 0 C2.5 1.1875 2.5 1.1875 4 3 C4.25 5.6875 4.25 5.6875 4 8 C3.67 7.01 3.34 6.02 3 5 C1.906875 4.855625 0.81375 4.71125 -0.3125 4.5625 C-4 4 -4 4 -7 3 C-6.67 6.63 -6.34 10.26 -6 14 C-11 13 -11 13 -12 12 C-12.57692308 4.96153846 -12.57692308 4.96153846 -10.5 1.5 C-6.96690959 -0.61985425 -4.02074668 -0.67561727 0 0 Z " fill="#E49761" transform="translate(68,56)"/>
<path d="M0 0 C5.75 1.625 5.75 1.625 8 5 C8.125 7.6875 8.125 7.6875 8 10 C5.6203388 11.1898306 4.08514265 11.13349966 1.4375 11.125 C0.22900391 11.12886719 0.22900391 11.12886719 -1.00390625 11.1328125 C-3 11 -3 11 -4 10 C-4.25 7.5625 -4.25 7.5625 -4 5 C-3.01 4.34 -2.02 3.68 -1 3 C-0.67 2.01 -0.34 1.02 0 0 Z " fill="#D48051" transform="translate(102,100)"/>
<path d="M0 0 C1.22419163 3.93795909 0.48320272 6.16112237 -1 10 C1.31 10 3.62 10 6 10 C6 11.32 6 12.64 6 14 C5.01 14 4.02 14 3 14 C3 15.65 3 17.3 3 19 C1.1875 20.0625 1.1875 20.0625 -1 21 C-1.99 20.67 -2.98 20.34 -4 20 C-4.51778074 12.30520289 -3.7505733 6.78117047 0 0 Z " fill="#712816" transform="translate(37,47)"/>
<path d="M0 0 C0 3.01490557 -0.51952735 4.86864114 -1.5 7.6875 C-1.7784375 8.49574219 -2.056875 9.30398437 -2.34375 10.13671875 C-2.5603125 10.75160156 -2.776875 11.36648437 -3 12 C-2.34 12.66 -1.68 13.32 -1 14 C-4.48563351 16.39014869 -6.74528094 17.47274656 -11 17 C-11.33 16.67 -11.66 16.34 -12 16 C-11.54393305 9.84309623 -11.54393305 9.84309623 -9.75 7.0625 C-7.41628148 5.64559947 -5.67863922 5.78281304 -3 6 C-2.87625 5.38125 -2.7525 4.7625 -2.625 4.125 C-2 2 -2 2 0 0 Z " fill="#D28656" transform="translate(26,90)"/>
<path d="M0 0 C1.32 1.32 2.64 2.64 4 4 C3.34 4 2.68 4 2 4 C2.350625 4.763125 2.70125 5.52625 3.0625 6.3125 C4 9 4 9 3 12 C3 11.34 3 10.68 3 10 C1.7625 10.2475 0.525 10.495 -0.75 10.75 C-4.03161925 11.16384541 -4.68060211 11.2103352 -7.5625 9.3125 C-9 7 -9 7 -9 4.875 C-7.68492754 2.40923914 -6.65033429 1.83296221 -4 1 C-1.75 1.375 -1.75 1.375 0 2 C0 1.34 0 0.68 0 0 Z " fill="#833016" transform="translate(86,41)"/>
<path d="M0 0 C2.27734375 -0.328125 2.27734375 -0.328125 4.9375 -0.25 C6.25041016 -0.22679688 6.25041016 -0.22679688 7.58984375 -0.203125 C10 0 10 0 13 1 C13 2.98 13 4.96 13 7 C8.71 7 4.42 7 0 7 C-0.66 5.68 -1.32 4.36 -2 3 C-1.34 2.01 -0.68 1.02 0 0 Z " fill="#6B2B1B" transform="translate(56,85)"/>
<path d="M0 0 C0.66 1.32 1.32 2.64 2 4 C1.34 4 0.68 4 0 4 C0 4.66 0 5.32 0 6 C0.5775 5.484375 1.155 4.96875 1.75 4.4375 C4 3 4 3 6.25 3.3125 C6.8275 3.539375 7.405 3.76625 8 4 C8.33 5.65 8.66 7.3 9 9 C3.70769231 13.06153846 3.70769231 13.06153846 0.125 12.75 C-0.57625 12.5025 -1.2775 12.255 -2 12 C-2.144375 11.236875 -2.28875 10.47375 -2.4375 9.6875 C-2.9632594 6.91827092 -2.9632594 6.91827092 -4 4 C-2.68 2.68 -1.36 1.36 0 0 Z " fill="#754645" transform="translate(77,74)"/>
<path d="M0 0 C6.34507042 -0.35915493 6.34507042 -0.35915493 8.9375 1.0625 C10.55479605 4.01168691 10.18630138 6.70867559 10 10 C9.34 9.67 8.68 9.34 8 9 C6.00978479 9.09723451 6.00978479 9.09723451 3.875 9.4375 C2.59625 9.623125 1.3175 9.80875 0 10 C0 8.35 0 6.7 0 5 C-0.66 5 -1.32 5 -2 5 C-1.34 3.35 -0.68 1.7 0 0 Z " fill="#D48457" transform="translate(118,61)"/>
<path d="M0 0 C1.4606285 2.64738916 2 3.89448334 2 7 C3.65 7.33 5.3 7.66 7 8 C7 9.65 7 11.3 7 13 C5.35 13 3.7 13 2 13 C2.51958285 17.37934119 3.05675742 21.68803391 4 26 C3.34 26 2.68 26 2 26 C1.34 24.35 0.68 22.7 0 21 C-0.33 21 -0.66 21 -1 21 C-1.02710123 18.4374282 -1.04688771 15.87514635 -1.0625 13.3125 C-1.07087891 12.59126953 -1.07925781 11.87003906 -1.08789062 11.12695312 C-1.10543632 7.28444618 -0.93524221 3.73360474 0 0 Z " fill="#D78553" transform="translate(23,52)"/>
<path d="M0 0 C3.2099681 2.31094651 5.33800613 4.18474357 7.55078125 7.50390625 C4.8232991 6.19447345 2.32043785 4.73750081 -0.19921875 3.06640625 C-6.08238239 -0.62970771 -11.38501099 -2.98894545 -18.44921875 -2.49609375 C-20.13285328 -2.49609375 -21.8166128 -2.50239193 -23.5 -2.53125 C-27.94353392 -2.58497148 -32.07281419 -2.39381776 -36.44921875 -1.49609375 C-36.44921875 -2.15609375 -36.44921875 -2.81609375 -36.44921875 -3.49609375 C-24.23476153 -7.40597122 -11.10560089 -6.78380405 0 0 Z " fill="#E19A69" transform="translate(86.44921875,27.49609375)"/>
<path d="M0 0 C0.33 0.66 0.66 1.32 1 2 C-1.01822917 2.42317708 -3.03645833 2.84635417 -5.0546875 3.26953125 C-7.37046549 3.92308838 -7.37046549 3.92308838 -9 7 C-9.45915507 9.96842658 -9.45915507 9.96842658 -9.625 13.1875 C-9.69976562 14.27417969 -9.77453125 15.36085938 -9.8515625 16.48046875 C-9.90054688 17.31191406 -9.94953125 18.14335938 -10 19 C-10.33 18.34 -10.66 17.68 -11 17 C-11.99 16.67 -12.98 16.34 -14 16 C-14.61806341 10.95248215 -14.66397665 7.11052866 -11.5 2.9375 C-7.87458966 -0.82668203 -5.01398641 -0.60513629 0 0 Z " fill="#BE3B0C" transform="translate(64,51)"/>
<path d="M0 0 C0.33 0.66 0.66 1.32 1 2 C-1.31 2 -3.62 2 -6 2 C-5.67 5.96 -5.34 9.92 -5 14 C-2.525 14.99 -2.525 14.99 0 16 C0 16.33 0 16.66 0 17 C-6.30421687 17.36370482 -6.30421687 17.36370482 -9.234375 15.83203125 C-11 14 -11 14 -11.3125 11.40625 C-11.209375 10.4471875 -11.10625 9.488125 -11 8.5 C-10.9175 7.5409375 -10.835 6.581875 -10.75 5.59375 C-10 3 -10 3 -8.140625 1.16796875 C-5.32713012 -0.36713156 -3.1535273 -0.21501322 0 0 Z " fill="#5B231A" transform="translate(91,57)"/>
<path d="M0 0 C1.98 0 3.96 0 6 0 C4.68 0.33 3.36 0.66 2 1 C2 2.32 2 3.64 2 5 C2.99 5.33 3.98 5.66 5 6 C5 6.66 5 7.32 5 8 C6.32 8 7.64 8 9 8 C8 11 8 11 6 12 C0.46153846 12.23076923 0.46153846 12.23076923 -2 11 C-2.19622241 6.78121808 -1.80230168 3.82989106 0 0 Z " fill="#7B3727" transform="translate(108,61)"/>
<path d="M0 0 C0.99 0.33 1.98 0.66 3 1 C3 2.98 3 4.96 3 7 C2.34 7 1.68 7 1 7 C0.67 8.65 0.34 10.3 0 12 C-1.79260132 11.94004678 -3.58425795 11.8512759 -5.375 11.75 C-6.87160156 11.68039063 -6.87160156 11.68039063 -8.3984375 11.609375 C-9.68621094 11.30773437 -9.68621094 11.30773437 -11 11 C-11.66 9.68 -12.32 8.36 -13 7 C-8.71 7 -4.42 7 0 7 C0 4.69 0 2.38 0 0 Z " fill="#4A120A" transform="translate(71,37)"/>
<path d="M0 0 C2.31 0 4.62 0 7 0 C7.33 0.99 7.66 1.98 8 3 C8.99 3.33 9.98 3.66 11 4 C10.01 4.33 9.02 4.66 8 5 C8 5.66 8 6.32 8 7 C8.66 7 9.32 7 10 7 C10 9.31 10 11.62 10 14 C8.02 14.99 8.02 14.99 6 16 C4.99503148 12.98509443 4.89664697 10.95818308 4.9375 7.8125 C4.94652344 6.91144531 4.95554687 6.01039062 4.96484375 5.08203125 C4.97644531 4.39496094 4.98804688 3.70789062 5 3 C3.02 3 1.04 3 -1 3 C-0.67 2.01 -0.34 1.02 0 0 Z " fill="#55180D" transform="translate(38,55)"/>
<path d="M0 0 C3.7952131 1.49097658 5.61042731 3.75700849 8 7 C6.9375 9.4375 6.9375 9.4375 5 12 C1.3125 12.8125 1.3125 12.8125 -2 13 C-2.33 12.34 -2.66 11.68 -3 11 C-2.34 10.67 -1.68 10.34 -1 10 C0.13350534 7.98330173 0.13350534 7.98330173 1 6 C1.33 6.66 1.66 7.32 2 8 C2.66 8 3.32 8 4 8 C3.67 6.35 3.34 4.7 3 3 C1.68 3.33 0.36 3.66 -1 4 C-0.67 2.68 -0.34 1.36 0 0 Z " fill="#5E2114" transform="translate(28,89)"/>
<path d="M0 0 C2.875 -0.1875 2.875 -0.1875 6 0 C8.79921583 4.19882375 7.86558093 6.12127113 7 11 C6 12 6 12 2.9375 12.0625 C1.968125 12.041875 0.99875 12.02125 0 12 C0.185625 11.236875 0.37125 10.47375 0.5625 9.6875 C1.22819173 6.91032625 1.22819173 6.91032625 0 4 C0.99 3.67 1.98 3.34 3 3 C3.66 3.33 4.32 3.66 5 4 C5 3.01 5 2.02 5 1 C3.35 1 1.7 1 0 1 C0 0.67 0 0.34 0 0 Z " fill="#7F3723" transform="translate(15,56)"/>
<path d="M0 0 C1.03125 0.350625 2.0625 0.70125 3.125 1.0625 C6.9798964 1.99513623 9.20172226 1.92640921 13 1 C12.6875 3.375 12.6875 3.375 12 6 C8.75846834 8.1610211 7.76307099 8.64247553 4 8 C1.6875 5.6875 1.6875 5.6875 0 3 C0 2.01 0 1.02 0 0 Z " fill="#7D4132" transform="translate(93,31)"/>
<path d="M0 0 C0.66 0.33 1.32 0.66 2 1 C1.34 1.66 0.68 2.32 0 3 C0.33 3.99 0.66 4.98 1 6 C-0.0828125 6.061875 -0.0828125 6.061875 -1.1875 6.125 C-5.9881426 7.61853325 -8.05008824 11.26168885 -10.35546875 15.48046875 C-11.60958727 17.97031695 -12.81359417 20.47732654 -14 23 C-14.66304349 24.33513877 -15.32843141 25.66912891 -16 27 C-17.02644838 20.54803875 -14.49782555 16.4007865 -11.15625 10.95703125 C-7.98852262 6.61288337 -4.24199839 3.27047495 0 0 Z " fill="#D78A5E" transform="translate(40,29)"/>
<path d="M0 0 C3.63 0 7.26 0 11 0 C11 2.31 11 4.62 11 7 C9.68 7 8.36 7 7 7 C6.67 5.35 6.34 3.7 6 2 C5.67 3.32 5.34 4.64 5 6 C3.35 6 1.7 6 0 6 C0 4.02 0 2.04 0 0 Z " fill="#865550" transform="translate(60,37)"/>
<path d="M0 0 C2.97 0.495 2.97 0.495 6 1 C6 1.66 6 2.32 6 3 C6.99 2.67 7.98 2.34 9 2 C9.2475 2.94875 9.495 3.8975 9.75 4.875 C10.6857077 8.08693191 10.6857077 8.08693191 13.125 9.375 C13.74375 9.58125 14.3625 9.7875 15 10 C14.67 10.66 14.34 11.32 14 12 C13.01 12 12.02 12 11 12 C9.80177702 10.44554857 8.60361409 8.89105062 7.40625 7.3359375 C5.91840748 5.65368906 5.91840748 5.65368906 2.6875 5.625 C1.800625 5.74875 0.91375 5.8725 0 6 C0 4.02 0 2.04 0 0 Z " fill="#D16B2C" transform="translate(22,16)"/>
<path d="M0 0 C1.36125 0.12375 1.36125 0.12375 2.75 0.25 C2.4375 2.1875 2.4375 2.1875 1.75 4.25 C0.76 4.58 -0.23 4.91 -1.25 5.25 C-1.25 6.9 -1.25 8.55 -1.25 10.25 C-2.57 10.25 -3.89 10.25 -5.25 10.25 C-5.91 8.27 -6.57 6.29 -7.25 4.25 C-4.83923194 1.28290085 -3.90322061 0.30024774 0 0 Z " fill="#D38256" transform="translate(68.25,-0.25)"/>
<path d="M0 0 C6.76487633 0.42280477 11.96376842 5.64524106 16.3125 10.4375 C19.02261888 13.78442277 20.68261888 16.89287063 22 21 C21.56640625 23.20703125 21.56640625 23.20703125 21 25 C20.39865234 23.60587891 20.39865234 23.60587891 19.78515625 22.18359375 C15.74142283 13.23565524 11.65675571 6.81271368 2.2265625 2.828125 C1.49179688 2.55484375 0.75703125 2.2815625 0 2 C0 1.34 0 0.68 0 0 Z " fill="#D47C50" transform="translate(75,33)"/>
<path d="M0 0 C2 3 2 3 2 6 C2.66 6 3.32 6 4 6 C4.45890625 6.88042969 4.9178125 7.76085937 5.390625 8.66796875 C6.31101562 10.41013672 6.31101562 10.41013672 7.25 12.1875 C7.85328125 13.33605469 8.4565625 14.48460938 9.078125 15.66796875 C10.83696661 18.71734251 12.72285895 21.32486306 15 24 C8.33848336 21.07828218 4.29804297 15.33087917 1.5625 8.75 C0.30502849 5.44584891 0 3.6467348 0 0 Z " fill="#D88254" transform="translate(23,72)"/>
<path d="M0 0 C2.31 0 4.62 0 7 0 C8.15941038 3.47823115 7.70820884 5.45895578 7 9 C6.34 9 5.68 9 5 9 C4.67 8.01 4.34 7.02 4 6 C3.01 5.67 2.02 5.34 1 5 C1 6.98 1 8.96 1 11 C0.67 11 0.34 11 0 11 C0 7.37 0 3.74 0 0 Z " fill="#925B4F" transform="translate(85,59)"/>
<path d="M0 0 C2.31 0.33 4.62 0.66 7 1 C7.33 3.31 7.66 5.62 8 8 C5.36 8 2.72 8 0 8 C0 5.36 0 2.72 0 0 Z " fill="#773B2C" transform="translate(57,106)"/>
<path d="M0 0 C0.33 0 0.66 0 1 0 C1.66 2.31 2.32 4.62 3 7 C5.31 7 7.62 7 10 7 C10 6.34 10 5.68 10 5 C10.66 5 11.32 5 12 5 C12.33 4.01 12.66 3.02 13 2 C13.21620175 4.6664882 13.30894168 6.44004321 12 8.8125 C8.80208182 10.71126392 5.61301411 10.67744014 2 10 C-0.56323176 7.8372732 -0.94110412 6.63313066 -1.25 3.3125 C-1 1 -1 1 0 0 Z " fill="#C45A25" transform="translate(55,118)"/>
<path d="M0 0 C2.475 0.495 2.475 0.495 5 1 C5.33 3.97 5.66 6.94 6 10 C1.125 9.125 1.125 9.125 0 8 C-0.14115161 5.32941149 -0.04247107 2.67567762 0 0 Z " fill="#D4845C" transform="translate(56,60)"/>
<path d="M0 0 C0.66 0 1.32 0 2 0 C2.33 1.32 2.66 2.64 3 4 C6.3 4 9.6 4 13 4 C11 8 11 8 8.1875 9 C5 9 5 9 2.1875 7.3125 C0.06856757 5.07248572 -0.79057052 4.0367275 -1 1 C-0.67 0.67 -0.34 0.34 0 0 Z " fill="#B95629" transform="translate(96,106)"/>
<path d="M0 0 C0.99 0 1.98 0 3 0 C3.103125 0.639375 3.20625 1.27875 3.3125 1.9375 C3.539375 2.618125 3.76625 3.29875 4 4 C4.99 4.33 5.98 4.66 7 5 C6.67 3.68 6.34 2.36 6 1 C6.66 1.33 7.32 1.66 8 2 C8 2.66 8 3.32 8 4 C8.99 3.67 9.98 3.34 11 3 C11 4.32 11 5.64 11 7 C8.3125 7.75 8.3125 7.75 5 8 C2.125 6.3125 2.125 6.3125 0 4 C0 2.68 0 1.36 0 0 Z " fill="#68291A" transform="translate(89,98)"/>
<path d="M0 0 C7.75 1.625 7.75 1.625 10 5 C10 6.32 10 7.64 10 9 C9.01 8.67 8.02 8.34 7 8 C7 7.01 7 6.02 7 5 C4.23723823 5.52268466 1.6739124 6.10869587 -1 7 C-1 6.34 -1 5.68 -1 5 C-0.34 5 0.32 5 1 5 C0.67 3.35 0.34 1.7 0 0 Z " fill="#6A2615" transform="translate(78,73)"/>
<path d="M0 0 C0.33 0 0.66 0 1 0 C1.89363449 9.33351581 0.24963336 16.15748204 -5 24 C-5.99 24.66 -6.98 25.32 -8 26 C-7.09149388 23.65302585 -6.16920489 21.33979671 -5.046875 19.0859375 C-2.02259403 12.87939073 -0.87735171 6.82256392 0 0 Z " fill="#D78051" transform="translate(97,60)"/>
<path d="M0 0 C0.66 0.33 1.32 0.66 2 1 C2 1.66 2 2.32 2 3 C2.99 2.34 3.98 1.68 5 1 C5.66 0.67 6.32 0.34 7 0 C9.125 0.9375 9.125 0.9375 11 2 C6.5 6 6.5 6 2 6 C1.01 6.33 0.02 6.66 -1 7 C-1.66 6.34 -2.32 5.68 -3 5 C-2.01 3.35 -1.02 1.7 0 0 Z " fill="#D07642" transform="translate(101,23)"/>
<path d="M0 0 C1.2065625 0.0309375 1.2065625 0.0309375 2.4375 0.0625 C2.7675 1.7125 3.0975 3.3625 3.4375 5.0625 C2.4475 4.7325 1.4575 4.4025 0.4375 4.0625 C-0.2225 5.3825 -0.8825 6.7025 -1.5625 8.0625 C-2.8825 7.7325 -4.2025 7.4025 -5.5625 7.0625 C-3.33446653 0.08132845 -3.33446653 0.08132845 0 0 Z " fill="#854F47" transform="translate(28.5625,91.9375)"/>
<path d="M0 0 C2.125 0.375 2.125 0.375 4 1 C4.33 2.65 4.66 4.3 5 6 C3.02 6.99 1.04 7.98 -1 9 C-1.625 5.625 -1.625 5.625 -2 2 C-1.34 1.34 -0.68 0.68 0 0 Z " fill="#843D27" transform="translate(81,77)"/>
<path d="M0 0 C2.125 0.375 2.125 0.375 4 1 C4.38218767 2.65614657 4.71395102 4.32457024 5 6 C4 7 4 7 1.4375 7.0625 C0.2309375 7.0315625 0.2309375 7.0315625 -1 7 C-1.625 4.625 -1.625 4.625 -2 2 C-1.34 1.34 -0.68 0.68 0 0 Z " fill="#513F41" transform="translate(61,98)"/>
<path d="M0 0 C1.2065625 0.0309375 1.2065625 0.0309375 2.4375 0.0625 C3.0625 2.4375 3.0625 2.4375 3.4375 5.0625 C2.7775 5.7225 2.1175 6.3825 1.4375 7.0625 C-0.6875 6.6875 -0.6875 6.6875 -2.5625 6.0625 C-2.94468767 4.40635343 -3.27645102 2.73792976 -3.5625 1.0625 C-2.5625 0.0625 -2.5625 0.0625 0 0 Z " fill="#67636E" transform="translate(36.5625,85.9375)"/>
<path d="M0 0 C1.2065625 0.0309375 1.2065625 0.0309375 2.4375 0.0625 C2.4375 1.3825 2.4375 2.7025 2.4375 4.0625 C1.4475 4.0625 0.4575 4.0625 -0.5625 4.0625 C-0.500625 4.84625 -0.43875 5.63 -0.375 6.4375 C-0.436875 7.30375 -0.49875 8.17 -0.5625 9.0625 C-1.5525 9.7225 -2.5425 10.3825 -3.5625 11.0625 C-3.58938151 9.41675434 -3.60884123 7.77088587 -3.625 6.125 C-3.63660156 5.20847656 -3.64820313 4.29195312 -3.66015625 3.34765625 C-3.52086326 0.08820018 -3.27895972 0.07997463 0 0 Z " fill="#8F5549" transform="translate(40.5625,56.9375)"/>
<path d="M0 0 C1.67542976 0.28604898 3.34385343 0.61781233 5 1 C5.625 2.875 5.625 2.875 6 5 C5.34 5.66 4.68 6.32 4 7 C1.875 6.625 1.875 6.625 0 6 C-0.38218767 4.34385343 -0.71395102 2.67542976 -1 1 C-0.67 0.67 -0.34 0.34 0 0 Z " fill="#5A5159" transform="translate(87,89)"/>
<path d="M0 0 C2.6664882 -0.21620175 4.44004321 -0.30894168 6.8125 1 C8.73618446 4.23988962 8.18282384 7.2825819 8 11 C7.34 11 6.68 11 6 11 C5.566875 9.88625 5.13375 8.7725 4.6875 7.625 C3.30088881 3.82487666 3.30088881 3.82487666 0 2 C0 1.34 0 0.68 0 0 Z " fill="#AD2E0C" transform="translate(68,55)"/>
<path d="M0 0 C0.99 0 1.98 0 3 0 C4.00306087 7.3557797 0.47901358 12.6942879 -3 19 C-4.22156872 15.33529384 -3.62833432 14.36762312 -2.1875 10.875 C-1.83042969 9.98554687 -1.47335938 9.09609375 -1.10546875 8.1796875 C0 6 0 6 2 5 C2 4.34 2 3.68 2 3 C1.34 3 0.68 3 0 3 C0 2.01 0 1.02 0 0 Z " fill="#75200B" transform="translate(93,65)"/>
<path d="M0 0 C-0.33 0.721875 -0.66 1.44375 -1 2.1875 C-2.00603529 5.01697427 -2.16977402 7.02895466 -2 10 C-3.32 9.67 -4.64 9.34 -6 9 C-6.75 6.75 -6.75 6.75 -7 4 C-4.69139139 0.94933862 -3.89789797 0 0 0 Z " fill="#744848" transform="translate(98,93)"/>
<path d="M0 0 C1.98 0.66 3.96 1.32 6 2 C5.67 3.32 5.34 4.64 5 6 C2.69 6 0.38 6 -2 6 C-2.33 5.01 -2.66 4.02 -3 3 C-2.01 3 -1.02 3 0 3 C0 2.01 0 1.02 0 0 Z " fill="#C45C2B" transform="translate(6,62)"/>
<path d="M0 0 C1.32 0 2.64 0 4 0 C4 1.32 4 2.64 4 4 C4.66 4.33 5.32 4.66 6 5 C5.01 6.485 5.01 6.485 4 8 C2.0625 7.25 2.0625 7.25 0 6 C-0.8125 4 -0.8125 4 -1 2 C-0.67 1.34 -0.34 0.68 0 0 Z " fill="#955441" transform="translate(49,39)"/>
<path d="M0 0 C1.670625 0.061875 1.670625 0.061875 3.375 0.125 C3.375 1.115 3.375 2.105 3.375 3.125 C2.385 3.455 1.395 3.785 0.375 4.125 C0.045 4.785 -0.285 5.445 -0.625 6.125 C-1.615 6.125 -2.605 6.125 -3.625 6.125 C-4.285 4.805 -4.945 3.485 -5.625 2.125 C-3.625 0.125 -3.625 0.125 0 0 Z " fill="#E2A47F" transform="translate(106.625,19.875)"/>
<path d="M0 0 C0.99 0.33 1.98 0.66 3 1 C5.33299825 1.03954234 7.66708189 1.04401732 10 1 C9 4 9 4 7 5 C5.00039988 5.039992 2.99952758 5.04346799 1 5 C0.67 3.35 0.34 1.7 0 0 Z " fill="#4B140A" transform="translate(107,68)"/>
<path d="M0 0 C1.32 1.32 2.64 2.64 4 4 C3.34 5.32 2.68 6.64 2 8 C0.0625 7.1875 0.0625 7.1875 -2 6 C-2.33 5.01 -2.66 4.02 -3 3 C-2.01 2.01 -1.02 1.02 0 0 Z " fill="#7A4845" transform="translate(45,44)"/>
<path d="M0 0 C3.26954202 0.56371414 4.82575883 1.49962266 7 4 C6.34 5.32 5.68 6.64 5 8 C3.68 7.67 2.36 7.34 1 7 C0.67 4.69 0.34 2.38 0 0 Z " fill="#794946" transform="translate(26,25)"/>
<path d="M0 0 C0.33 0.99 0.66 1.98 1 3 C-0.90401138 4.90401138 -2.33425686 5.93520439 -5.046875 6.19921875 C-7.03233273 6.1886578 -9.0169914 6.09915043 -11 6 C-11.33 5.34 -11.66 4.68 -12 4 C-11.21753906 3.79503906 -10.43507812 3.59007813 -9.62890625 3.37890625 C-8.61699219 3.10949219 -7.60507812 2.84007813 -6.5625 2.5625 C-5.55316406 2.29566406 -4.54382813 2.02882813 -3.50390625 1.75390625 C-1.08247999 1.24021923 -1.08247999 1.24021923 0 0 Z " fill="#C7541B" transform="translate(71,67)"/>
<path d="M0 0 C1.65 0 3.3 0 5 0 C5.33 1.65 5.66 3.3 6 5 C3.625 5.625 3.625 5.625 1 6 C0.34 5.34 -0.32 4.68 -1 4 C-0.625 1.875 -0.625 1.875 0 0 Z " fill="#534A52" transform="translate(37,34)"/>
<path d="M0 0 C1.67542976 0.28604898 3.34385343 0.61781233 5 1 C5 2.65 5 4.3 5 6 C3.34385343 6.38218767 1.67542976 6.71395102 0 7 C-1 6 -1 6 -1.125 3.5 C-1 1 -1 1 0 0 Z " fill="#53494F" transform="translate(64,24)"/>
<path d="M0 0 C3.7602985 0.58107632 6.53035032 1.65199496 9.8125 3.5625 C10.60269531 4.01753906 11.39289062 4.47257812 12.20703125 4.94140625 C12.79871094 5.29074219 13.39039063 5.64007813 14 6 C14 6.66 14 7.32 14 8 C10.0397381 7.43726296 7.47032673 6.26476935 4.1875 4 C3.39730469 3.46375 2.60710938 2.9275 1.79296875 2.375 C1.20128906 1.92125 0.60960937 1.4675 0 1 C0 0.67 0 0.34 0 0 Z " fill="#C9744D" transform="translate(36,96)"/>
<path d="M0 0 C1.67542976 0.28604898 3.34385343 0.61781233 5 1 C5 2.65 5 4.3 5 6 C3.35 6 1.7 6 0 6 C-0.38218767 4.34385343 -0.71395102 2.67542976 -1 1 C-0.67 0.67 -0.34 0.34 0 0 Z " fill="#55545E" transform="translate(25,59)"/>
<path d="M0 0 C1.65 0 3.3 0 5 0 C5.625 1.875 5.625 1.875 6 4 C5.34 4.66 4.68 5.32 4 6 C1.375 5.625 1.375 5.625 -1 5 C-0.67 3.35 -0.34 1.7 0 0 Z " fill="#514950" transform="translate(90,37)"/>
<path d="M0 0 C2.06942361 1.0347118 3.977904 2.20773491 5.9375 3.4375 C6.62714844 3.86933594 7.31679688 4.30117187 8.02734375 4.74609375 C9.69908676 5.80872643 11.35180247 6.90120165 13 8 C10 9 10 9 8.09765625 8.36328125 C4.14056384 6.32017596 0.94646548 4.43754306 -2 1 C-1.34 0.67 -0.68 0.34 0 0 Z " fill="#71220E" transform="translate(44,86)"/>
<path d="M0 0 C4.55384615 -0.36923077 4.55384615 -0.36923077 6.8125 1.5 C7.204375 1.995 7.59625 2.49 8 3 C7.67 3.99 7.34 4.98 7 6 C3 6 3 6 1.25 4.6875 C0 3 0 3 0 0 Z " fill="#E8A97C" transform="translate(120,61)"/>
<path d="M0 0 C0.33 0 0.66 0 1 0 C1.33 1.65 1.66 3.3 2 5 C4.64 5 7.28 5 10 5 C8.515 7.475 8.515 7.475 7 10 C4.72970466 9.60856977 3.16591802 9.11258722 1.25 7.8125 C-0.54267046 5.21312784 -0.20510719 3.07660784 0 0 Z " fill="#BA5224" transform="translate(17,16)"/>
<path d="M0 0 C0 1.65 0 3.3 0 5 C-2.31 5.33 -4.62 5.66 -7 6 C-7 4.68 -7 3.36 -7 2 C-1.125 0 -1.125 0 0 0 Z " fill="#D47B40" transform="translate(110,105)"/>
<path d="M0 0 C0.99 0.99 1.98 1.98 3 3 C2.34 3 1.68 3 1 3 C0.67 4.98 0.34 6.96 0 9 C-1.32 8.01 -2.64 7.02 -4 6 C-3.67 4.68 -3.34 3.36 -3 2 C-2.01 2 -1.02 2 0 2 C0 1.34 0 0.68 0 0 Z " fill="#88524A" transform="translate(45,75)"/>
<path d="M0 0 C0.33 0 0.66 0 1 0 C1.103125 1.093125 1.20625 2.18625 1.3125 3.3125 C2.03823695 7.2050891 2.37366323 7.48309393 5 10 C5.6875 13.1875 5.6875 13.1875 6 16 C0.11555053 10.41731717 0.11555053 10.41731717 -0.09765625 5.95703125 C-0.06510417 3.97135417 -0.03255208 1.98567708 0 0 Z " fill="#D35A19" transform="translate(49,60)"/>
<path d="M0 0 C0.33 0 0.66 0 1 0 C1.33 1.65 1.66 3.3 2 5 C3.98 5.66 5.96 6.32 8 7 C8 7.33 8 7.66 8 8 C1.67741935 8.36476427 1.67741935 8.36476427 -1.4375 6.6875 C-3 5 -3 5 -3 2 C-2.01 2 -1.02 2 0 2 C0 1.34 0 0.68 0 0 Z " fill="#3B100A" transform="translate(83,66)"/>
<path d="M0 0 C1.65 0 3.3 0 5 0 C5.33 1.98 5.66 3.96 6 6 C5.01 6.33 4.02 6.66 3 7 C1.5 5.75 1.5 5.75 0 4 C0 2.68 0 1.36 0 0 Z " fill="#A9796F" transform="translate(110,62)"/>
<path d="M0 0 C0.33 0 0.66 0 1 0 C1.04254356 1.99954746 1.04080783 4.00041636 1 6 C0 7 0 7 -3.0625 7.0625 C-4.5165625 7.0315625 -4.5165625 7.0315625 -6 7 C-6 6.01 -6 5.02 -6 4 C-4.7934375 3.566875 -4.7934375 3.566875 -3.5625 3.125 C-0.8673532 2.26737432 -0.8673532 2.26737432 0 0 Z " fill="#5E2419" transform="translate(21,61)"/>
<path d="M0 0 C3.625 3.625 3.625 3.625 4 7 C3.72686657 9.34114367 3.40197001 11.67750658 3 14 C2.67 13.34 2.34 12.68 2 12 C1.01 12 0.02 12 -1 12 C-1 11.34 -1 10.68 -1 10 C-0.34 9.67 0.32 9.34 1 9 C0.67 6.03 0.34 3.06 0 0 Z " fill="#B15A35" transform="translate(94,53)"/>
<path d="M0 0 C2.475 0.99 2.475 0.99 5 2 C5 2.66 5 3.32 5 4 C6.32 4.66 7.64 5.32 9 6 C8.67 6.66 8.34 7.32 8 8 C7.01 8 6.02 8 5 8 C0 2.65116279 0 2.65116279 0 0 Z " fill="#CAA7A4" transform="translate(28,20)"/>
<path d="M0 0 C1.32 1.32 2.64 2.64 4 4 C2.68 4 1.36 4 0 4 C0 5.65 0 7.3 0 9 C-1.32 8.01 -2.64 7.02 -4 6 C-3.6875 4.125 -3.6875 4.125 -3 2 C-2.01 1.34 -1.02 0.68 0 0 Z " fill="#8E5345" transform="translate(81,42)"/>
<path d="M0 0 C2 3 2 3 2 5 C2.928125 4.649375 3.85625 4.29875 4.8125 3.9375 C8 3 8 3 11 4 C11 4.99 11 5.98 11 7 C7.7 7 4.4 7 1 7 C0.67 4.69 0.34 2.38 0 0 Z " fill="#C2521E" transform="translate(61,5)"/>
<path d="M0 0 C0.99 0 1.98 0 3 0 C3 0.66 3 1.32 3 2 C3.66 2.33 4.32 2.66 5 3 C5 7 5 7 4 10 C1.2027092 7.93243723 0.97307727 6.85559629 0.3125 3.3125 C0.209375 2.219375 0.10625 1.12625 0 0 Z " fill="#3C0F09" transform="translate(71,79)"/>
<path d="M0 0 C0.33 0 0.66 0 1 0 C1.35050464 5.841744 1.16727335 9.8531808 -2 15 C-3.48114019 11.14903552 -2.38321035 8.76540594 -1 5 C-0.63893903 3.33911955 -0.29537827 1.67381019 0 0 Z " fill="#DC8346" transform="translate(105,67)"/>
<path d="M0 0 C1.65 0 3.3 0 5 0 C5 1.98 5 3.96 5 6 C3.35 6.33 1.7 6.66 0 7 C0 4.69 0 2.38 0 0 Z " fill="#7C3521" transform="translate(39,60)"/>
<path d="M0 0 C1.98 0.495 1.98 0.495 4 1 C4 2.65 4 4.3 4 6 C2.35 6 0.7 6 -1 6 C-0.67 4.02 -0.34 2.04 0 0 Z " fill="#7F4D49" transform="translate(58,85)"/>
<path d="M0 0 C0.66 0.66 1.32 1.32 2 2 C3.32 2 4.64 2 6 2 C6 2.99 6 3.98 6 5 C3.625 5.625 3.625 5.625 1 6 C0.34 5.34 -0.32 4.68 -1 4 C-0.625 1.875 -0.625 1.875 0 0 Z " fill="#483D45" transform="translate(99,64)"/>
<path d="M0 0 C0.598125 0.20625 1.19625 0.4125 1.8125 0.625 C1.8125 1.945 1.8125 3.265 1.8125 4.625 C0.8225 4.955 -0.1675 5.285 -1.1875 5.625 C-2.5075 4.305 -3.8275 2.985 -5.1875 1.625 C-2.1875 -0.375 -2.1875 -0.375 0 0 Z " fill="#BB4A19" transform="translate(110.1875,27.375)"/>
<path d="M0 0 C1.32 0 2.64 0 4 0 C4.144375 0.598125 4.28875 1.19625 4.4375 1.8125 C4.8872439 3.56150404 5.42892341 5.28677023 6 7 C4.02 7 2.04 7 0 7 C0 4.69 0 2.38 0 0 Z " fill="#74250F" transform="translate(66,15)"/>
<path d="M0 0 C0.99 0 1.98 0 3 0 C3.33 1.65 3.66 3.3 4 5 C2.68 5.33 1.36 5.66 0 6 C-0.38218767 4.34385343 -0.71395102 2.67542976 -1 1 C-0.67 0.67 -0.34 0.34 0 0 Z " fill="#CF8361" transform="translate(19,16)"/>
<path d="M0 0 C1.65 0.99 3.3 1.98 5 3 C4.67 4.32 4.34 5.64 4 7 C2.68 6.34 1.36 5.68 0 5 C0 3.35 0 1.7 0 0 Z " fill="#D28662" transform="translate(56,119)"/>
<path d="M0 0 C0.66 0.33 1.32 0.66 2 1 C1.01 2.32 0.02 3.64 -1 5 C-0.34 5.33 0.32 5.66 1 6 C0.01 7.485 0.01 7.485 -1 9 C-1.99 8.67 -2.98 8.34 -4 8 C-3.50168276 4.31245243 -2.89932357 2.39509338 0 0 Z " fill="#DFA382" transform="translate(18,96)"/>
<path d="M0 0 C2 3 2 3 2 6 C2.66 6 3.32 6 4 6 C4.79953138 9.28696233 5.09658936 10.71023192 4 14 C3.32471777 12.42032193 2.66010306 10.83608097 2 9.25 C1.62875 8.36828125 1.2575 7.4865625 0.875 6.578125 C0 4 0 4 0 0 Z " fill="#D79168" transform="translate(23,72)"/>
<path d="M0 0 C0.99 0.495 0.99 0.495 2 1 C1.67 1.66 1.34 2.32 1 3 C1.66 3 2.32 3 3 3 C3.33 5.31 3.66 7.62 4 10 C4.66 10 5.32 10 6 10 C5.67 10.66 5.34 11.32 5 12 C3.68 11.34 2.36 10.68 1 10 C1.33 8.68 1.66 7.36 2 6 C1.34 5.67 0.68 5.34 0 5 C0 3.35 0 1.7 0 0 Z " fill="#984020" transform="translate(115,63)"/>
<path d="M0 0 C0.33 0.66 0.66 1.32 1 2 C-1.31 2 -3.62 2 -6 2 C-6 2.99 -6 3.98 -6 5 C-7.32 5 -8.64 5 -10 5 C-10 4.34 -10 3.68 -10 3 C-6.81719857 -0.18280143 -4.38555569 -0.29901516 0 0 Z " fill="#450F07" transform="translate(91,57)"/>
<path d="M0 0 C1.88453599 2.77137645 1.99438022 4.07867687 1.75 7.5 C1.11776234 10.4504424 0.39459297 12.39371151 -1 15 C-1.18451025 4.44191344 -1.18451025 4.44191344 0 0 Z " fill="#C5754E" transform="translate(23,52)"/>
<path d="M0 0 C0 2.31 0 4.62 0 7 C-1.32 7 -2.64 7 -4 7 C-4.33 5.02 -4.66 3.04 -5 1 C-2 0 -2 0 0 0 Z " fill="#884127" transform="translate(71,37)"/>
<path d="M0 0 C2.86724686 0.57344937 3.8614515 0.8614515 6 3 C6.125 5.625 6.125 5.625 6 8 C5.34 8 4.68 8 4 8 C4 7.34 4 6.68 4 6 C3.01 5.67 2.02 5.34 1 5 C1.66 5 2.32 5 3 5 C3 4.01 3 3.02 3 2 C2.01 2 1.02 2 0 2 C0 1.34 0 0.68 0 0 Z " fill="#925C50" transform="translate(67,13)"/>
<path d="M0 0 C2.97 0.495 2.97 0.495 6 1 C5.67 2.65 5.34 4.3 5 6 C3.68 6 2.36 6 1 6 C1.33 4.35 1.66 2.7 2 1 C1.34 0.67 0.68 0.34 0 0 Z " fill="#8D4D36" transform="translate(63,85)"/>
<path d="M0 0 C2.31 0 4.62 0 7 0 C7 0.99 7 1.98 7 3 C3.98968256 3.93423645 3.13349732 4.04449911 0 3 C0 2.01 0 1.02 0 0 Z " fill="#5B251D" transform="translate(60,81)"/>
<path d="M0 0 C0.66 1.32 1.32 2.64 2 4 C1.34 4 0.68 4 0 4 C-0.33 5.32 -0.66 6.64 -1 8 C-1.99 7.01 -2.98 6.02 -4 5 C-2.68 3.35 -1.36 1.7 0 0 Z " fill="#6D362D" transform="translate(77,74)"/>
<path d="M0 0 C2.64 0 5.28 0 8 0 C8 0.99 8 1.98 8 3 C5.36 3 2.72 3 0 3 C0 2.01 0 1.02 0 0 Z " fill="#9B5945" transform="translate(12,57)"/>
<path d="M0 0 C0.99 0 1.98 0 3 0 C3.28875 0.78375 3.5775 1.5675 3.875 2.375 C4.84912254 5.09671632 4.84912254 5.09671632 7 7 C2.25 6.25 2.25 6.25 0 4 C0 2.68 0 1.36 0 0 Z " fill="#4E1C14" transform="translate(89,98)"/>
<path d="M0 0 C2.97 0.495 2.97 0.495 6 1 C5.67 1.66 5.34 2.32 5 3 C4.34 3 3.68 3 3 3 C2.34 4.32 1.68 5.64 1 7 C0.34 7 -0.32 7 -1 7 C-1 6.34 -1 5.68 -1 5 C-0.34 5 0.32 5 1 5 C0.67 3.35 0.34 1.7 0 0 Z " fill="#4B1309" transform="translate(78,73)"/>
<path d="M0 0 C1.32 0.33 2.64 0.66 4 1 C4 1.99 4 2.98 4 4 C4.66 4 5.32 4 6 4 C5.67 4.66 5.34 5.32 5 6 C3.35 5.67 1.7 5.34 0 5 C0 3.35 0 1.7 0 0 Z " fill="#742D19" transform="translate(86,64)"/>
<path d="M0 0 C0.99 0.33 1.98 0.66 3 1 C3.33 3.64 3.66 6.28 4 9 C3.67 8.34 3.34 7.68 3 7 C2.01 6.67 1.02 6.34 0 6 C0 4.02 0 2.04 0 0 Z " fill="#C34511" transform="translate(50,61)"/>
<path d="M0 0 C1.32 1.32 2.64 2.64 4 4 C3.34 5.32 2.68 6.64 2 8 C1.34 8 0.68 8 0 8 C-1.125 2.25 -1.125 2.25 0 0 Z " fill="#78311B" transform="translate(81,44)"/>
<path d="M0 0 C4.51478398 0.53115106 7.34666857 2.36620292 11 5 C10.34 5.66 9.68 6.32 9 7 C7.6078125 6.0409375 7.6078125 6.0409375 6.1875 5.0625 C3.15780057 2.91377907 3.15780057 2.91377907 0 2 C0 1.34 0 0.68 0 0 Z " fill="#CF7445" transform="translate(75,33)"/>
<path d="M0 0 C2.13093906 1.06546953 3.36587557 2.29159719 5 4 C2.36 4.33 -0.28 4.66 -3 5 C-3 4.01 -3 3.02 -3 2 C-2.01 1.34 -1.02 0.68 0 0 Z " fill="#964D33" transform="translate(97,27)"/>
<path d="M0 0 C0.33 0 0.66 0 1 0 C1 1.98 1 3.96 1 6 C1.66 6 2.32 6 3 6 C3.33 5.01 3.66 4.02 4 3 C4.33 4.98 4.66 6.96 5 9 C3.68 9 2.36 9 1 9 C-0.4783226 6.04335481 -0.06032783 3.25770263 0 0 Z " fill="#692F27" transform="translate(56,108)"/>
<path d="M0 0 C0.66 0 1.32 0 2 0 C2 1.32 2 2.64 2 4 C2.99 4.33 3.98 4.66 5 5 C2.69 5 0.38 5 -2 5 C-2.33 5.66 -2.66 6.32 -3 7 C-2.38722388 4.03824877 -1.74627478 2.61941217 0 0 Z " fill="#3C0C05" transform="translate(58,80)"/>
<path d="M0 0 C0 0.66 0 1.32 0 2 C-0.66 2 -1.32 2 -2 2 C-1.34 3.65 -0.68 5.3 0 7 C-4.875 2.25 -4.875 2.25 -6 0 C-2.25 -1.125 -2.25 -1.125 0 0 Z " fill="#450E05" transform="translate(50,72)"/>
<path d="M0 0 C0.66 0 1.32 0 2 0 C1.375 1.875 1.375 1.875 0 4 C-3.125 5.25 -3.125 5.25 -6 6 C-5.67 4.68 -5.34 3.36 -5 2 C-4.360625 1.855625 -3.72125 1.71125 -3.0625 1.5625 C-1.02454854 1.18992819 -1.02454854 1.18992819 0 0 Z " fill="#C34D16" transform="translate(76,70)"/>
<path d="M0 0 C1.65 0 3.3 0 5 0 C5.33 1.65 5.66 3.3 6 5 C3.03 4.505 3.03 4.505 0 4 C0 2.68 0 1.36 0 0 Z " fill="#D67E43" transform="translate(122,66)"/>
<path d="M0 0 C2.97 0.495 2.97 0.495 6 1 C5.67 2.32 5.34 3.64 5 5 C4.01 5 3.02 5 2 5 C2 4.01 2 3.02 2 2 C1.34 2 0.68 2 0 2 C0 1.34 0 0.68 0 0 Z " fill="#E7A880" transform="translate(4,55)"/>
<path d="M0 0 C-0.66 1.65 -1.32 3.3 -2 5 C-3.32 5 -4.64 5 -6 5 C-5.6875 3.0625 -5.6875 3.0625 -5 1 C-2 0 -2 0 0 0 Z " fill="#581609" transform="translate(104,34)"/>
<path d="M0 0 C0.66 0.33 1.32 0.66 2 1 C2 2.65 2 4.3 2 6 C1.01 6.33 0.02 6.66 -1 7 C-1.66 6.34 -2.32 5.68 -3 5 C-2.01 3.35 -1.02 1.7 0 0 Z " fill="#C9856A" transform="translate(101,23)"/>
<path d="M0 0 C1.98 0.66 3.96 1.32 6 2 C5.67 2.99 5.34 3.98 5 5 C3.35 4.67 1.7 4.34 0 4 C0 2.68 0 1.36 0 0 Z " fill="#DF9D77" transform="translate(103,102)"/>
<path d="M0 0 C1.875 0.25 1.875 0.25 4 1 C5.25 3.0625 5.25 3.0625 6 5 C4.35 5 2.7 5 1 5 C0.67 3.35 0.34 1.7 0 0 Z " fill="#7F3922" transform="translate(46,78)"/>
<path d="M0 0 C2 2 2 2 2 6 C0.02 6.99 0.02 6.99 -2 8 C-2 4.23312136 -1.76462683 3.08809695 0 0 Z " fill="#3B0E08" transform="translate(46,63)"/>
<path d="M0 0 C0.99 0.33 1.98 0.66 3 1 C3 2.98 3 4.96 3 7 C2.01 7 1.02 7 0 7 C0 4.69 0 2.38 0 0 Z " fill="#6D2716" transform="translate(71,37)"/>
<path d="M0 0 C2.86724686 0.57344937 3.8614515 0.8614515 6 3 C6 4.32 6 5.64 6 7 C5.01 7.33 4.02 7.66 3 8 C2 5 2 5 2 2 C1.34 1.34 0.68 0.68 0 0 Z " fill="#8A391F" transform="translate(33,23)"/>
<path d="M0 0 C2.31 0 4.62 0 7 0 C7 0.99 7 1.98 7 3 C6.01 3.33 5.02 3.66 4 4 C4 3.34 4 2.68 4 2 C2.35 2.33 0.7 2.66 -1 3 C-0.67 2.01 -0.34 1.02 0 0 Z " fill="#EBB893" transform="translate(20,12)"/>
<path d="M0 0 C1.98 0 3.96 0 6 0 C5.67 1.32 5.34 2.64 5 4 C3.35 3.67 1.7 3.34 0 3 C0 2.01 0 1.02 0 0 Z " fill="#E5BAA4" transform="translate(65,0)"/>
<path d="M0 0 C0.66 0.33 1.32 0.66 2 1 C2 2.32 2 3.64 2 5 C0.35 5 -1.3 5 -3 5 C-3 4.01 -3 3.02 -3 2 C-2.34 2.33 -1.68 2.66 -1 3 C-0.67 2.01 -0.34 1.02 0 0 Z " fill="#C87951" transform="translate(18,102)"/>
<path d="M0 0 C1.32 0.99 2.64 1.98 4 3 C3.34 4.32 2.68 5.64 2 7 C0.68 6.67 -0.64 6.34 -2 6 C-1.01 5.67 -0.02 5.34 1 5 C0.34 4.34 -0.32 3.68 -1 3 C-0.67 2.01 -0.34 1.02 0 0 Z " fill="#D36C2D" transform="translate(23,99)"/>
<path d="M0 0 C0.99 0 1.98 0 3 0 C3.25 6.625 3.25 6.625 1 10 C0.67 8.35 0.34 6.7 0 5 C0.66 5 1.32 5 2 5 C2 4.34 2 3.68 2 3 C1.34 3 0.68 3 0 3 C0 2.01 0 1.02 0 0 Z " fill="#7C2F18" transform="translate(93,65)"/>
<path d="M0 0 C1.65 0 3.3 0 5 0 C5.33 1.65 5.66 3.3 6 5 C5.67 4.34 5.34 3.68 5 3 C3.02 3.33 1.04 3.66 -1 4 C-0.67 2.68 -0.34 1.36 0 0 Z " fill="#864C39" transform="translate(84,48)"/>
<path d="M0 0 C-6.4 3.07692308 -6.4 3.07692308 -9.4375 2.6875 C-9.953125 2.460625 -10.46875 2.23375 -11 2 C-7.06425135 -0.62383243 -4.54354105 -1.51451368 0 0 Z " fill="#842C13" transform="translate(58,35)"/>
<path d="M0 0 C2.97 0 5.94 0 9 0 C7.60804085 2.7839183 5.84424221 2.97898997 3 4 C2.67 3.01 2.34 2.02 2 1 C1.34 0.67 0.68 0.34 0 0 Z " fill="#C6896F" transform="translate(63,22)"/>
<path d="M0 0 C1.32 1.32 2.64 2.64 4 4 C3.01 5.485 3.01 5.485 2 7 C1.67 6.01 1.34 5.02 1 4 C-1.01508358 3.26676204 -1.01508358 3.26676204 -3 3 C-2.01 2.01 -1.02 1.02 0 0 Z " fill="#E1935C" transform="translate(71,1)"/>
<path d="M0 0 C1.65 0 3.3 0 5 0 C4.6875 1.9375 4.6875 1.9375 4 4 C3.01 4.33 2.02 4.66 1 5 C0.67 3.35 0.34 1.7 0 0 Z " fill="#5E5963" transform="translate(59,100)"/>
<path d="M0 0 C0.99 0 1.98 0 3 0 C2.34 1.65 1.68 3.3 1 5 C-0.32 4.67 -1.64 4.34 -3 4 C-1.6875 2 -1.6875 2 0 0 Z " fill="#64291C" transform="translate(95,93)"/>
<path d="M0 0 C1.65 0 3.3 0 5 0 C5 0.99 5 1.98 5 3 C2.36 3 -0.28 3 -3 3 C-2.01 2.67 -1.02 2.34 0 2 C0 1.34 0 0.68 0 0 Z " fill="#753627" transform="translate(60,93)"/>
<path d="M0 0 C0.66 0.33 1.32 0.66 2 1 C1.67 2.65 1.34 4.3 1 6 C-0.32 6.33 -1.64 6.66 -3 7 C-3.33 6.34 -3.66 5.68 -4 5 C-2.68 4.34 -1.36 3.68 0 3 C0 2.01 0 1.02 0 0 Z " fill="#523534" transform="translate(38,86)"/>
<path d="M0 0 C2.0625 0.4375 2.0625 0.4375 4 1 C4 1.66 4 2.32 4 3 C3.01 3 2.02 3 1 3 C0.67 4.32 0.34 5.64 0 7 C-1 6 -1 6 -1.125 3.5 C-1 1 -1 1 0 0 Z " fill="#DDA689" transform="translate(1,58)"/>
<path d="M0 0 C1.98 0 3.96 0 6 0 C6 0.99 6 1.98 6 3 C4.02 3 2.04 3 0 3 C0 2.01 0 1.02 0 0 Z " fill="#6F382F" transform="translate(62,45)"/>
<path d="M0 0 C1.65 1.65 3.3 3.3 5 5 C4.67 5.66 4.34 6.32 4 7 C3.01 6.67 2.02 6.34 1 6 C-0.1875 3.4375 -0.1875 3.4375 -1 1 C-0.67 0.67 -0.34 0.34 0 0 Z " fill="#82361E" transform="translate(47,42)"/>
<path d="M0 0 C0.33 0 0.66 0 1 0 C1.66 2.64 2.32 5.28 3 8 C2.01 8 1.02 8 0 8 C-0.38063221 5.6739143 -0.71269945 3.33944736 -1 1 C-0.67 0.67 -0.34 0.34 0 0 Z " fill="#C06338" transform="translate(55,118)"/>
<path d="M0 0 C1.98 0.99 1.98 0.99 4 2 C3.67 3.32 3.34 4.64 3 6 C2.01 6 1.02 6 0 6 C0 4.02 0 2.04 0 0 Z " fill="#7C4D4D" transform="translate(57,108)"/>
<path d="M0 0 C4.875 4.75 4.875 4.75 6 7 C3.04590299 5.62845496 0.55991624 4.01136276 -2 2 C-1.34 2 -0.68 2 0 2 C0 1.34 0 0.68 0 0 Z " fill="#DF752E" transform="translate(37,82)"/>
<path d="M0 0 C1.32 0.33 2.64 0.66 4 1 C4.33 2.32 4.66 3.64 5 5 C4.01 5 3.02 5 2 5 C1.34 3.35 0.68 1.7 0 0 Z " fill="#62281D" transform="translate(48,74)"/>
<path d="M0 0 C0.66 0 1.32 0 2 0 C1.6875 1.875 1.6875 1.875 1 4 C0.01 4.66 -0.98 5.32 -2 6 C-2 2 -2 2 0 0 Z " fill="#6D3227" transform="translate(53,48)"/>
<path d="M0 0 C4.75 0.875 4.75 0.875 7 2 C7 2.99 7 3.98 7 5 C4.11424181 4.60196439 3.17810487 4.20990931 1.25 1.9375 C0.8375 1.298125 0.425 0.65875 0 0 Z " fill="#5D1B0C" transform="translate(79,38)"/>
</svg>
